if (_typeface_js && _typeface_js.loadFace) _typeface_js.loadFace({"glyphs":{"S":{"x_min":26.0625,"x_max":736,"ha":797,"o":"m 585 743 q 514 793 559 777 q 428 809 469 809 q 380 803 405 809 q 333 786 355 797 q 296 754 310 774 q 283 707 283 735 q 316 639 283 663 q 400 599 349 615 q 509 565 450 582 q 618 518 567 549 q 702 436 669 487 q 736 298 736 385 q 705 155 736 216 q 622 54 674 94 q 501 -5 570 13 q 356 -25 433 -25 q 178 4 260 -25 q 26 98 96 33 l 180 268 q 264 199 213 223 q 369 175 314 175 q 422 181 395 175 q 471 200 449 187 q 505 232 492 212 q 519 277 519 251 q 484 348 519 322 q 399 391 450 373 q 288 428 348 409 q 177 476 228 446 q 92 557 126 507 q 58 689 58 607 q 89 828 58 768 q 172 928 120 888 q 292 988 224 968 q 433 1009 360 1009 q 594 985 516 1009 q 734 906 672 961 l 585 743 "},"¦":{"x_min":67,"x_max":242,"ha":309,"o":"m 242 661 l 67 661 l 67 1050 l 242 1050 l 242 661 m 67 364 l 242 364 l 242 -25 l 67 -25 l 67 364 "},"/":{"x_min":-4.171875,"x_max":569.4375,"ha":565,"o":"m 411 1057 l 569 1008 l 152 -73 l -4 -25 l 411 1057 "},"y":{"x_min":4.171875,"x_max":768.0625,"ha":772,"o":"m 462 -109 q 422 -205 441 -163 q 372 -275 402 -246 q 297 -318 343 -303 q 176 -333 251 -333 q 20 -308 95 -333 l 48 -137 q 145 -158 95 -158 q 202 -150 180 -158 q 239 -128 225 -142 q 263 -92 254 -113 q 284 -43 273 -71 l 300 -5 l 4 675 l 229 675 l 402 230 l 405 230 l 554 676 l 768 676 l 462 -109 "},"Ž":{"x_min":49,"x_max":827,"ha":876,"o":"m 49 200 l 547 792 l 67 792 l 67 984 l 810 984 l 810 792 l 321 200 l 827 200 l 827 0 l 49 0 l 49 200 m 347 1292 l 435 1183 l 521 1292 l 708 1292 l 543 1092 l 316 1092 l 155 1292 l 347 1292 "},"Á":{"x_min":-1.390625,"x_max":1030.5625,"ha":1029,"o":"m 506 697 l 387 391 l 627 391 l 506 697 m 423 983 l 602 983 l 1030 0 l 786 0 l 701 208 l 319 208 l 237 0 l -1 0 l 423 983 m 516 1254 l 800 1254 l 559 1054 l 376 1054 l 516 1254 "},"g":{"x_min":49,"x_max":782.328125,"ha":875,"o":"m 257 342 q 269 278 257 308 q 305 226 282 249 q 358 189 328 203 q 424 175 387 175 q 489 189 458 175 q 542 226 519 203 q 578 278 565 249 q 590 342 590 308 q 578 405 590 375 q 542 458 565 435 q 489 495 519 481 q 424 509 458 509 q 358 495 387 509 q 305 458 328 481 q 269 405 282 435 q 257 342 257 375 m 782 57 q 685 -233 782 -134 q 392 -333 589 -333 q 214 -312 301 -333 q 53 -234 126 -292 l 168 -62 q 270 -125 217 -102 q 387 -149 323 -149 q 528 -103 483 -149 q 574 15 574 -56 l 574 81 l 571 81 q 481 12 535 32 q 380 -8 428 -8 q 244 17 305 -8 q 139 89 183 43 q 72 200 96 136 q 49 340 49 264 q 70 471 49 407 q 131 584 92 535 q 228 662 171 632 q 357 692 285 692 q 438 682 401 692 q 504 657 475 673 q 554 623 533 642 q 587 587 575 605 l 590 587 l 590 676 l 782 676 l 782 57 "},"²":{"x_min":33,"x_max":501,"ha":534,"o":"m 33 525 l 291 745 q 330 781 310 761 q 351 821 351 800 q 326 863 351 850 q 269 876 301 876 q 204 854 228 876 q 177 805 180 832 l 38 805 q 105 953 38 905 q 273 1001 173 1001 q 364 989 323 1001 q 436 957 405 978 q 484 905 467 937 q 501 834 501 874 q 495 774 501 798 q 478 732 489 750 q 452 700 467 714 q 416 671 437 686 l 222 521 l 222 519 l 501 519 l 501 402 l 33 402 l 33 525 "},"–":{"x_min":0,"x_max":694,"ha":694,"o":"m 0 430 l 694 430 l 694 263 l 0 263 l 0 430 "},"ë":{"x_min":53,"x_max":745,"ha":798,"o":"m 536 414 q 499 504 536 466 q 406 542 463 542 q 345 530 372 542 q 300 502 319 519 q 271 462 281 484 q 261 414 261 439 l 536 414 m 712 116 q 586 17 662 52 q 428 -17 510 -17 q 281 8 350 -17 q 162 79 212 33 q 82 191 111 126 q 53 337 53 256 q 82 483 53 418 q 162 595 111 548 q 281 666 212 641 q 428 692 350 692 q 559 666 500 692 q 659 595 618 641 q 722 483 700 548 q 745 337 745 418 l 745 272 l 261 272 q 315 176 273 212 q 417 141 356 141 q 504 163 469 141 q 566 223 540 186 l 712 116 m 542 775 q 496 784 517 775 q 460 811 475 794 q 436 849 445 827 q 427 894 427 870 q 436 937 427 916 q 460 973 445 958 q 495 998 475 988 q 539 1008 515 1008 q 623 976 587 1008 q 660 894 660 944 q 626 809 660 844 q 542 775 593 775 m 253 775 q 207 784 228 775 q 171 811 186 794 q 147 849 156 827 q 138 894 138 870 q 147 937 138 916 q 171 973 156 958 q 206 998 186 988 q 250 1008 226 1008 q 334 976 298 1008 q 371 894 371 944 q 337 809 371 844 q 253 775 304 775 "},"ƒ":{"x_min":-27.390625,"x_max":790.390625,"ha":822,"o":"m 689 461 l 486 461 l 405 55 q 373 -47 394 -1 q 319 -125 353 -92 q 239 -175 286 -158 q 126 -193 192 -193 q 48 -183 87 -193 q -27 -159 8 -174 l 44 5 q 76 -6 60 -2 q 108 -9 92 -9 q 175 20 153 -9 q 212 122 197 50 l 282 461 l 124 461 l 124 603 l 310 603 l 335 729 q 371 858 350 805 q 423 942 391 910 q 500 987 455 974 q 609 1000 546 1000 q 702 989 658 1000 q 790 958 745 979 l 716 801 q 644 817 682 817 q 571 789 594 817 q 534 701 547 762 l 514 603 l 689 603 l 689 461 "},"Î":{"x_min":-71.046875,"x_max":482.046875,"ha":411,"o":"m 97 984 l 314 984 l 314 0 l 97 0 l 97 984 m 290 1055 l 202 1163 l 116 1055 l -71 1055 l 94 1255 l 320 1255 l 482 1055 l 290 1055 "},"e":{"x_min":53,"x_max":745,"ha":798,"o":"m 536 414 q 499 504 536 466 q 406 542 463 542 q 345 530 372 542 q 300 502 319 519 q 271 462 281 484 q 261 414 261 439 l 536 414 m 712 116 q 586 17 662 52 q 428 -17 510 -17 q 281 8 350 -17 q 162 79 212 33 q 82 191 111 126 q 53 337 53 256 q 82 483 53 418 q 162 595 111 548 q 281 666 212 641 q 428 692 350 692 q 559 666 500 692 q 659 595 618 641 q 722 483 700 548 q 745 337 745 418 l 745 272 l 261 272 q 315 176 273 212 q 417 141 356 141 q 504 163 469 141 q 566 223 540 186 l 712 116 "},"Ã":{"x_min":-1.390625,"x_max":1030.5625,"ha":1029,"o":"m 506 697 l 387 391 l 627 391 l 506 697 m 423 983 l 602 983 l 1030 0 l 786 0 l 701 208 l 319 208 l 237 0 l -1 0 l 423 983 m 243 1063 q 262 1132 248 1097 q 297 1193 276 1166 q 350 1237 319 1220 q 419 1254 380 1254 q 481 1245 454 1254 q 540 1224 509 1237 q 578 1210 559 1217 q 618 1204 597 1204 q 655 1218 641 1204 q 679 1254 669 1233 l 787 1254 q 768 1179 780 1213 q 734 1118 755 1144 q 681 1077 712 1092 q 606 1062 650 1062 q 549 1071 576 1062 q 498 1092 522 1080 q 453 1112 475 1103 q 411 1121 431 1121 q 373 1101 387 1121 q 352 1063 359 1082 l 243 1063 "},"J":{"x_min":-6.828125,"x_max":608,"ha":694,"o":"m 608 329 q 596 197 608 261 q 551 84 584 133 q 456 4 517 34 q 294 -25 394 -25 q 97 30 177 -25 q -6 204 16 86 l 191 253 q 224 192 195 217 q 289 167 253 167 q 348 185 327 167 q 379 232 369 204 q 389 292 389 260 q 389 353 389 325 l 389 984 l 608 984 l 608 329 "},"»":{"x_min":38.890625,"x_max":722.21875,"ha":747,"o":"m 200 346 l 38 586 l 165 671 l 386 346 l 165 20 l 38 105 l 200 346 m 536 346 l 375 586 l 501 671 l 722 346 l 501 20 l 375 105 l 536 346 "},"©":{"x_min":39,"x_max":1072,"ha":1111,"o":"m 181 492 q 210 339 181 411 q 290 215 239 268 q 409 131 341 162 q 555 100 477 100 q 701 131 633 100 q 820 215 769 162 q 900 339 871 268 q 930 492 930 411 q 900 644 930 572 q 820 768 871 715 q 701 852 769 821 q 555 884 633 884 q 409 852 477 884 q 290 768 341 821 q 210 644 239 715 q 181 492 181 572 m 39 492 q 79 692 39 599 q 191 856 120 786 q 354 968 261 927 q 555 1009 448 1009 q 756 968 662 1009 q 919 856 849 927 q 1031 692 990 786 q 1072 492 1072 599 q 1031 291 1072 384 q 919 127 990 197 q 756 16 849 57 q 555 -25 662 -25 q 354 16 448 -25 q 191 127 261 57 q 79 291 120 197 q 39 492 39 384 m 816 417 q 786 322 809 362 q 730 254 763 282 q 655 212 696 226 q 569 199 614 199 q 452 221 503 199 q 365 285 401 244 q 311 379 330 325 q 293 496 293 433 q 311 613 293 560 q 363 706 329 667 q 448 766 397 744 q 566 788 499 788 q 655 775 613 788 q 730 737 696 762 q 785 672 763 711 q 816 582 807 633 l 685 582 q 645 644 675 626 q 577 663 614 663 q 476 618 509 663 q 443 499 443 574 q 478 372 443 421 q 575 324 514 324 q 652 344 620 324 q 684 417 684 365 l 816 417 "},"˘":{"x_min":-74,"x_max":435.71875,"ha":361,"o":"m 35 984 q 54 950 39 963 q 89 930 69 937 q 132 919 109 922 q 180 917 156 917 q 272 927 234 917 q 326 984 310 937 l 435 984 q 407 893 430 931 q 351 830 385 854 q 273 795 317 806 q 179 784 229 784 q 84 794 129 784 q 5 829 40 804 q -51 891 -29 853 q -74 984 -74 929 l 35 984 "},"ò":{"x_min":49,"x_max":799,"ha":848,"o":"m 257 337 q 301 213 257 260 q 424 166 344 166 q 546 213 503 166 q 590 337 590 260 q 546 460 590 413 q 424 508 503 508 q 301 460 344 508 q 257 337 257 413 m 49 337 q 78 483 49 417 q 158 594 107 548 q 277 666 208 641 q 424 691 346 691 q 570 666 501 691 q 689 594 639 641 q 769 483 740 548 q 799 337 799 417 q 769 191 799 256 q 689 79 740 126 q 570 8 639 33 q 424 -17 501 -17 q 277 8 346 -17 q 158 79 208 33 q 78 191 107 126 q 49 337 49 256 m 565 783 l 382 783 l 142 983 l 425 983 l 565 783 "},"^":{"x_min":111.109375,"x_max":813.890625,"ha":925,"o":"m 361 984 l 563 984 l 813 477 l 616 477 l 462 807 l 306 477 l 111 477 l 361 984 "},"«":{"x_min":25,"x_max":708.328125,"ha":747,"o":"m 547 346 l 708 105 l 581 20 l 361 346 l 581 671 l 708 586 l 547 346 m 211 346 l 372 105 l 245 20 l 25 346 l 245 671 l 372 586 l 211 346 "},"D":{"x_min":100,"x_max":1007,"ha":1054,"o":"m 317 200 l 429 200 q 568 215 504 200 q 680 266 633 230 q 754 359 727 301 q 782 500 782 416 q 754 626 782 572 q 682 714 727 679 q 574 766 636 749 q 444 784 512 784 l 317 784 l 317 200 m 100 984 l 425 984 q 649 957 543 984 q 834 872 755 931 q 960 718 913 813 q 1007 489 1007 624 q 961 278 1007 369 q 840 125 916 187 q 663 31 763 63 q 454 0 563 0 l 100 0 l 100 984 "},"ł":{"x_min":-7.328125,"x_max":367.671875,"ha":361,"o":"m 76 344 l -7 259 l -7 439 l 76 524 l 76 1051 l 284 1051 l 284 732 l 367 817 l 367 638 l 284 553 l 284 0 l 76 0 l 76 344 "},"ÿ":{"x_min":4.171875,"x_max":767.84375,"ha":772,"o":"m 462 -109 q 422 -205 441 -163 q 372 -275 402 -246 q 297 -318 342 -303 q 176 -333 251 -333 q 20 -308 95 -333 l 48 -137 q 145 -158 95 -158 q 202 -150 180 -158 q 239 -128 224 -142 q 263 -92 253 -113 q 284 -43 273 -71 l 299 -5 l 4 675 l 229 675 l 402 230 l 405 230 l 554 676 l 767 676 l 462 -109 m 529 776 q 483 785 504 776 q 447 812 462 795 q 423 850 432 828 q 414 895 414 871 q 423 938 414 917 q 447 974 432 959 q 482 999 462 989 q 526 1009 502 1009 q 610 977 574 1009 q 647 895 647 945 q 613 810 647 845 q 529 776 580 776 m 240 776 q 194 785 215 776 q 158 812 173 795 q 134 850 143 828 q 125 895 125 871 q 134 938 125 917 q 158 974 143 959 q 193 999 173 989 q 237 1009 213 1009 q 321 977 285 1009 q 358 895 358 945 q 324 810 358 845 q 240 776 291 776 "},"Ł":{"x_min":25,"x_max":726.390625,"ha":746,"o":"m 108 222 l 25 150 l 25 333 l 108 405 l 108 983 l 325 983 l 325 593 l 616 850 l 616 669 l 325 413 l 325 200 l 726 200 l 726 0 l 108 0 l 108 222 "},"í":{"x_min":41.28125,"x_max":464.890625,"ha":361,"o":"m 76 675 l 284 675 l 284 0 l 76 0 l 76 675 m 181 984 l 464 984 l 224 784 l 41 784 l 181 984 "},"ˆ":{"x_min":-95.828125,"x_max":456.9375,"ha":361,"o":"m 265 784 l 177 892 l 91 784 l -95 784 l 69 984 l 295 984 l 456 784 l 265 784 "},"w":{"x_min":-6.9375,"x_max":1163.890625,"ha":1157,"o":"m -6 675 l 215 675 l 352 252 l 355 252 l 470 675 l 698 675 l 823 252 l 826 252 l 952 675 l 1163 675 l 923 0 l 718 0 l 577 449 l 575 449 l 450 0 l 240 0 l -6 675 "},"$":{"x_min":20.609375,"x_max":790,"ha":822,"o":"m 455 177 q 497 189 475 181 q 535 209 518 196 q 562 239 552 221 q 573 280 573 256 q 565 317 573 302 q 545 343 557 333 q 516 361 532 353 q 481 376 499 369 l 455 385 l 455 177 m 363 804 q 294 775 324 795 q 264 709 264 754 q 276 659 264 677 q 305 631 288 641 q 338 616 321 620 q 363 609 354 612 l 363 804 m 455 1000 q 610 980 529 1000 q 752 912 691 961 l 618 750 q 542 793 585 779 q 455 807 499 807 l 455 587 l 588 548 q 735 457 680 520 q 790 297 790 394 q 763 167 790 223 q 691 73 737 112 q 584 12 645 34 q 455 -17 523 -10 l 455 -114 l 363 -114 l 363 -17 q 181 7 272 -17 q 20 95 90 32 l 168 260 q 255 196 204 216 q 363 176 306 176 l 363 409 l 262 440 q 101 533 156 473 q 47 699 47 594 q 73 818 47 765 q 143 908 99 870 q 244 969 187 945 q 363 1000 302 993 l 363 1098 l 455 1098 l 455 1000 "},"\\":{"x_min":-4.171875,"x_max":569.4375,"ha":565,"o":"m 412 -73 l -4 1008 l 154 1057 l 569 -25 l 412 -73 "},"Ì":{"x_min":-76.609375,"x_max":347.328125,"ha":411,"o":"m 97 984 l 314 984 l 314 0 l 97 0 l 97 984 m 347 1055 l 163 1055 l -76 1255 l 206 1255 l 347 1055 "},"µ":{"x_min":74,"x_max":724,"ha":798,"o":"m 724 0 l 524 0 l 524 92 l 521 92 q 492 52 510 72 q 450 17 475 33 q 393 -7 425 2 q 324 -17 361 -17 q 282 -12 300 -17 l 282 -317 l 74 -317 l 74 675 l 284 675 l 284 344 q 284 283 284 315 q 294 226 284 252 q 326 183 305 199 q 389 166 348 166 q 455 181 430 166 q 493 219 480 195 q 511 274 507 244 q 515 338 515 305 l 515 675 l 724 675 l 724 0 "},"Ç":{"x_min":47,"x_max":933.21875,"ha":951,"o":"m 742 728 q 664 788 711 767 q 556 809 617 809 q 443 785 495 809 q 353 719 391 761 q 293 618 315 676 q 272 492 272 560 q 293 364 272 422 q 352 264 315 307 q 440 198 390 222 q 549 175 491 175 q 667 202 616 175 q 752 280 719 230 l 933 145 q 774 16 870 58 q 577 -25 679 -25 q 365 11 462 -25 q 197 114 267 47 q 86 277 126 182 q 47 492 47 373 q 86 706 47 610 q 197 869 126 801 q 365 972 267 936 q 577 1009 462 1009 q 664 1001 619 1009 q 753 977 709 993 q 837 932 797 960 q 909 864 877 904 l 742 728 m 511 -83 q 573 -86 541 -83 q 629 -101 604 -89 q 670 -136 654 -113 q 686 -198 686 -159 q 665 -262 686 -235 q 615 -303 645 -288 q 552 -326 585 -319 q 492 -333 519 -333 q 403 -321 451 -333 q 319 -291 355 -309 l 354 -226 q 397 -241 370 -233 q 461 -250 425 -250 q 493 -247 477 -250 q 523 -240 509 -245 q 544 -227 536 -236 q 553 -205 553 -219 q 528 -169 553 -180 q 483 -158 504 -158 q 433 -169 459 -158 l 388 -129 l 475 0 l 568 0 l 511 -83 "},"’":{"x_min":54.171875,"x_max":356.9375,"ha":411,"o":"m 231 592 l 54 592 l 156 984 l 356 984 l 231 592 "},"-":{"x_min":35,"x_max":377,"ha":412,"o":"m 377 263 l 35 263 l 35 430 l 377 430 l 377 263 "},"Q":{"x_min":47,"x_max":1176,"ha":1183,"o":"m 272 504 q 295 385 272 440 q 360 288 319 329 q 455 223 401 247 q 572 200 509 200 q 688 223 634 200 q 783 288 742 247 q 848 385 824 329 q 872 504 872 440 q 848 624 872 568 q 783 720 824 679 q 688 785 742 761 q 572 809 634 809 q 455 785 509 809 q 360 720 401 761 q 295 624 319 679 q 272 504 272 568 m 1176 0 l 580 0 q 367 34 465 0 q 198 133 269 68 q 87 291 127 198 q 47 504 47 384 q 87 708 47 615 q 199 868 128 801 q 366 972 270 935 q 572 1009 462 1009 q 777 971 681 1009 q 944 867 873 933 q 1056 708 1015 800 q 1097 504 1097 615 q 1085 401 1097 451 q 1049 307 1073 351 q 988 227 1026 262 q 901 169 951 192 l 901 167 l 1176 167 l 1176 0 "},"M":{"x_min":100,"x_max":1211,"ha":1311,"o":"m 100 984 l 427 984 l 654 342 l 656 342 l 884 984 l 1211 984 l 1211 0 l 994 0 l 994 755 l 991 755 l 733 0 l 568 0 l 319 755 l 317 755 l 317 0 l 100 0 l 100 984 "},"C":{"x_min":47,"x_max":933.109375,"ha":951,"o":"m 742 728 q 664 788 710 767 q 556 809 617 809 q 443 785 495 809 q 353 719 391 761 q 293 618 315 676 q 272 492 272 560 q 293 364 272 422 q 352 264 315 307 q 440 198 390 222 q 549 175 491 175 q 667 202 616 175 q 752 280 719 230 l 933 145 q 774 16 870 58 q 577 -25 678 -25 q 365 11 462 -25 q 197 114 267 47 q 86 277 126 182 q 47 492 47 373 q 86 706 47 610 q 197 869 126 801 q 365 972 267 936 q 577 1009 462 1009 q 664 1001 619 1009 q 753 977 709 993 q 837 932 797 960 q 909 864 877 904 l 742 728 "},"œ":{"x_min":49,"x_max":1259,"ha":1312,"o":"m 1050 414 q 1013 504 1050 466 q 920 542 977 542 q 859 530 886 542 q 814 502 833 519 q 785 462 795 484 q 775 414 775 439 l 1050 414 m 425 508 q 301 460 346 508 q 257 337 257 413 q 301 213 257 260 q 425 166 346 166 q 548 213 504 166 q 592 337 592 260 q 548 460 592 413 q 425 508 504 508 m 1226 116 q 1100 17 1176 52 q 941 -17 1023 -17 q 790 4 854 -17 q 677 78 726 25 q 560 3 625 24 q 425 -17 496 -17 q 278 8 346 -17 q 158 79 210 33 q 78 191 107 126 q 49 337 49 256 q 78 483 49 417 q 158 594 107 548 q 278 666 210 641 q 425 691 346 691 q 564 666 500 691 q 677 590 628 641 q 786 664 722 637 q 942 692 850 692 q 1073 666 1014 692 q 1173 595 1132 641 q 1236 483 1214 548 q 1259 337 1259 418 l 1259 272 l 775 272 q 829 176 787 212 q 931 141 870 141 q 1018 164 983 141 q 1080 223 1054 187 l 1226 116 "},"!":{"x_min":181,"x_max":437,"ha":618,"o":"m 181 120 q 190 170 181 146 q 217 211 200 193 q 258 238 235 228 q 308 248 282 248 q 359 238 335 248 q 400 211 382 228 q 427 170 417 193 q 437 120 437 146 q 427 69 437 93 q 400 28 417 46 q 359 1 382 11 q 308 -8 335 -8 q 258 1 282 -8 q 217 28 235 11 q 190 69 200 46 q 181 120 181 93 m 413 325 l 204 325 l 204 984 l 413 984 l 413 325 "},"ç":{"x_min":53,"x_max":667.625,"ha":669,"o":"m 530 457 q 487 494 514 479 q 427 509 459 509 q 304 461 348 509 q 261 338 261 414 q 304 214 261 262 q 427 167 348 167 q 487 183 462 167 q 530 219 512 198 l 667 74 q 553 4 619 24 q 427 -16 487 -16 q 281 9 349 -16 q 161 80 212 34 q 82 192 111 127 q 53 338 53 257 q 82 484 53 418 q 161 595 111 549 q 281 667 212 642 q 427 692 349 692 q 553 672 487 692 q 667 602 619 652 l 530 457 m 369 -83 q 431 -86 399 -83 q 487 -101 462 -89 q 528 -136 512 -113 q 544 -198 544 -159 q 523 -262 544 -235 q 473 -303 503 -288 q 410 -326 444 -319 q 351 -333 377 -333 q 261 -321 309 -333 q 178 -291 214 -309 l 212 -226 q 256 -241 229 -233 q 319 -250 283 -250 q 352 -247 336 -250 q 381 -240 368 -245 q 402 -227 394 -236 q 411 -205 411 -219 q 386 -168 411 -180 q 341 -157 362 -157 q 291 -168 318 -157 l 247 -128 l 333 1 l 426 1 l 369 -83 "},"È":{"x_min":108,"x_max":801.390625,"ha":875,"o":"m 108 984 l 776 984 l 776 784 l 325 784 l 325 600 l 751 600 l 751 400 l 325 400 l 325 200 l 801 200 l 801 0 l 108 0 l 108 984 m 579 1055 l 395 1055 l 155 1255 l 438 1255 l 579 1055 "},"{":{"x_min":19,"x_max":494.328125,"ha":514,"o":"m 494 -217 l 348 -217 q 278 -205 310 -217 q 221 -169 245 -194 q 182 -106 196 -144 q 169 -14 169 -68 l 169 224 q 150 276 169 256 q 106 305 131 295 q 56 318 81 315 q 19 321 31 321 l 19 479 q 56 481 31 479 q 106 494 81 484 q 150 523 131 504 q 169 575 169 543 l 169 815 q 182 908 169 870 q 219 970 195 946 q 276 1005 244 994 q 348 1017 309 1017 l 494 1017 l 494 859 l 426 859 q 376 850 394 859 q 349 829 358 842 q 338 799 340 815 q 336 769 336 783 l 336 545 q 322 468 336 497 q 288 425 308 440 q 243 405 267 410 q 197 401 219 401 l 197 397 q 243 392 219 397 q 288 374 267 388 q 322 331 308 359 q 336 255 336 304 l 336 30 q 338 0 336 16 q 349 -29 340 -15 q 376 -50 358 -42 q 426 -59 394 -59 l 494 -59 l 494 -217 "},"X":{"x_min":0,"x_max":1002.78125,"ha":1003,"o":"m 344 514 l 19 984 l 291 984 l 501 639 l 702 984 l 965 984 l 647 518 l 1002 0 l 730 0 l 490 396 l 256 0 l 0 0 l 344 514 "},"ô":{"x_min":49,"x_max":799,"ha":848,"o":"m 257 337 q 301 213 257 260 q 424 166 344 166 q 546 213 503 166 q 590 337 590 260 q 546 460 590 413 q 424 508 503 508 q 301 460 344 508 q 257 337 257 413 m 49 337 q 78 483 49 417 q 158 594 107 548 q 277 666 208 641 q 424 691 346 691 q 570 666 501 691 q 689 594 639 641 q 769 483 740 548 q 799 337 799 417 q 769 191 799 256 q 689 79 740 126 q 570 8 639 33 q 424 -17 501 -17 q 277 8 346 -17 q 158 79 208 33 q 78 191 107 126 q 49 337 49 256 m 508 783 l 421 891 l 335 783 l 147 783 l 312 983 l 539 983 l 700 783 l 508 783 "},"¼":{"x_min":10.828125,"x_max":1223,"ha":1234,"o":"m 824 1028 l 941 962 l 367 -44 l 262 15 l 824 1028 m 215 842 l 91 738 l 10 829 l 231 992 l 365 992 l 365 401 l 215 401 l 215 842 m 994 424 l 991 424 l 853 235 l 994 235 l 994 424 m 994 118 l 704 118 l 704 226 l 980 591 l 1144 591 l 1144 235 l 1223 235 l 1223 118 l 1144 118 l 1144 0 l 994 0 l 994 118 "},"#":{"x_min":62,"x_max":759,"ha":822,"o":"m 491 579 l 353 579 l 329 404 l 467 404 l 491 579 m 178 279 l 62 279 l 62 404 l 195 404 l 218 579 l 102 579 l 102 704 l 235 704 l 274 983 l 409 983 l 370 704 l 507 704 l 546 983 l 681 983 l 642 704 l 759 704 l 759 579 l 625 579 l 602 404 l 719 404 l 719 279 l 585 279 l 546 0 l 411 0 l 450 279 l 313 279 l 274 0 l 139 0 l 178 279 "},"Ê":{"x_min":108,"x_max":801.390625,"ha":875,"o":"m 108 984 l 776 984 l 776 784 l 325 784 l 325 600 l 751 600 l 751 400 l 325 400 l 325 200 l 801 200 l 801 0 l 108 0 l 108 984 m 522 1055 l 434 1163 l 348 1055 l 160 1055 l 326 1255 l 552 1255 l 713 1055 l 522 1055 "},")":{"x_min":28.84375,"x_max":375,"ha":436,"o":"m 28 -133 q 103 -5 70 -66 q 160 118 137 55 q 195 250 183 182 q 208 400 208 319 q 195 549 208 480 q 160 681 183 618 q 103 805 137 744 q 28 933 70 867 l 171 1017 l 174 1011 q 322 720 270 868 q 375 400 375 572 q 322 79 375 227 q 174 -211 270 -68 l 171 -216 l 28 -133 "},"Å":{"x_min":-1.5,"x_max":1030.109375,"ha":1029,"o":"m 506 697 l 387 391 l 627 391 l 506 697 m 423 983 l 602 983 l 1030 0 l 785 0 l 700 208 l 319 208 l 237 0 l -1 0 l 423 983 m 444 1169 q 464 1119 444 1140 q 515 1099 485 1099 q 565 1119 544 1099 q 586 1169 586 1140 q 565 1220 586 1199 q 515 1241 544 1241 q 464 1220 485 1241 q 444 1169 444 1199 m 515 1016 q 455 1028 483 1016 q 406 1061 427 1040 q 373 1110 385 1082 q 361 1170 361 1138 q 373 1229 361 1201 q 406 1278 385 1257 q 455 1311 427 1299 q 515 1324 483 1324 q 574 1311 546 1324 q 623 1278 602 1299 q 656 1229 644 1257 q 669 1170 669 1201 q 656 1110 669 1138 q 623 1061 644 1082 q 574 1028 602 1040 q 515 1016 546 1016 "},"ø":{"x_min":36.5,"x_max":811.5,"ha":848,"o":"m 342 185 q 423 166 378 166 q 546 213 503 166 q 590 337 590 260 q 574 416 590 380 l 342 185 m 514 485 q 424 508 476 508 q 301 460 344 508 q 257 337 257 413 q 278 249 257 287 l 514 485 m 133 105 q 71 208 93 149 q 49 337 49 266 q 78 483 49 417 q 158 594 107 548 q 277 666 208 641 q 424 691 346 691 q 548 673 490 691 q 653 623 605 655 l 746 716 l 811 653 l 719 562 q 778 460 757 517 q 799 337 799 403 q 769 191 799 256 q 689 79 740 126 q 570 8 639 33 q 424 -17 501 -17 q 203 46 299 -17 l 101 -54 l 36 8 l 133 105 "},"â":{"x_min":40,"x_max":689,"ha":746,"o":"m 445 293 q 386 293 422 293 q 318 283 351 293 q 262 253 285 273 q 240 199 240 234 q 271 143 240 161 q 338 125 303 125 q 397 133 369 125 q 448 156 426 141 q 484 194 470 171 q 497 249 497 217 l 497 293 l 445 293 m 497 84 l 494 84 q 402 6 459 30 q 280 -17 344 -17 q 189 -3 233 -17 q 112 36 145 9 q 59 101 78 62 q 40 192 40 140 q 61 291 40 250 q 119 358 83 331 q 203 399 156 384 q 301 421 251 414 q 403 428 352 428 q 497 428 454 428 q 457 517 497 484 q 363 550 417 550 q 269 528 312 550 q 194 469 227 507 l 83 583 q 219 664 141 637 q 380 692 297 692 q 531 669 472 692 q 625 601 590 646 q 675 492 661 557 q 689 343 689 427 l 689 0 l 497 0 l 497 84 m 458 783 l 370 891 l 284 783 l 96 783 l 262 983 l 488 983 l 650 783 l 458 783 "},"}":{"x_min":19.65625,"x_max":495,"ha":514,"o":"m 20 1017 l 170 1017 q 236 1005 204 1017 q 292 969 268 994 q 331 906 317 944 q 345 814 345 868 l 345 575 q 363 523 345 543 q 405 494 381 504 q 454 481 429 484 q 495 479 479 479 l 495 321 q 454 318 479 321 q 405 305 429 315 q 363 276 381 295 q 345 224 345 256 l 345 -15 q 331 -108 345 -70 q 293 -170 317 -146 q 237 -205 269 -194 q 165 -217 204 -217 l 19 -217 l 19 -59 l 87 -59 q 137 -50 119 -59 q 164 -29 155 -42 q 175 0 173 -15 q 178 30 178 16 l 178 254 q 191 330 178 302 q 225 372 205 358 q 270 391 246 387 q 317 398 294 395 l 317 401 q 270 405 294 401 q 225 424 246 409 q 191 467 205 439 q 178 544 178 495 l 178 769 q 175 799 178 783 q 164 829 173 815 q 137 850 155 842 q 87 859 119 859 l 20 859 l 20 1017 "},"‰":{"x_min":44,"x_max":1576,"ha":1620,"o":"m 766 1027 l 883 962 l 309 -44 l 203 14 l 766 1027 m 1219 228 q 1251 149 1219 182 q 1330 116 1284 116 q 1409 149 1376 116 q 1443 228 1443 182 q 1409 307 1443 274 q 1330 340 1376 340 q 1251 307 1284 340 q 1219 228 1219 274 m 681 228 q 713 149 681 182 q 792 116 746 116 q 871 149 838 116 q 904 228 904 182 q 871 307 904 274 q 792 340 838 340 q 713 307 746 340 q 681 228 681 274 m 177 755 q 209 676 177 709 q 288 643 242 643 q 367 676 334 643 q 401 755 401 709 q 367 834 401 801 q 288 867 334 867 q 209 834 242 867 q 177 755 177 801 m 44 755 q 62 850 44 805 q 114 927 81 894 q 192 980 148 961 q 288 1000 236 1000 q 383 980 338 1000 q 461 927 428 961 q 514 850 495 894 q 534 755 534 805 q 514 660 534 705 q 461 582 495 615 q 383 529 428 548 q 288 510 338 510 q 192 529 236 510 q 114 582 148 548 q 62 660 81 615 q 44 755 44 705 m 1086 228 q 1105 323 1086 278 q 1158 400 1124 367 q 1235 453 1191 434 q 1330 473 1280 473 q 1425 453 1380 473 q 1503 400 1470 434 q 1556 323 1537 367 q 1576 228 1576 278 q 1556 133 1576 178 q 1503 55 1537 88 q 1425 2 1470 21 q 1330 -17 1380 -17 q 1235 2 1280 -17 q 1158 55 1191 21 q 1105 133 1124 88 q 1086 228 1086 178 m 548 228 q 566 323 548 278 q 618 400 585 367 q 696 453 652 434 q 792 473 741 473 q 886 453 842 473 q 964 400 931 434 q 1017 323 998 367 q 1037 228 1037 278 q 1017 133 1037 178 q 964 55 998 88 q 886 2 931 21 q 792 -17 842 -17 q 696 2 741 -17 q 618 55 652 21 q 566 133 585 88 q 548 228 548 178 "},"Ä":{"x_min":-1.5625,"x_max":1030.171875,"ha":1029,"o":"m 506 697 l 387 391 l 627 391 l 506 697 m 423 983 l 602 983 l 1030 0 l 785 0 l 701 208 l 319 208 l 237 0 l -1 0 l 423 983 m 658 1046 q 612 1055 633 1046 q 576 1082 591 1065 q 552 1120 561 1098 q 543 1165 543 1141 q 552 1208 543 1187 q 576 1244 561 1229 q 611 1269 591 1259 q 655 1279 631 1279 q 739 1247 703 1279 q 776 1165 776 1215 q 742 1080 776 1115 q 658 1046 709 1046 m 369 1046 q 323 1055 344 1046 q 287 1082 302 1065 q 263 1120 272 1098 q 254 1165 254 1141 q 263 1208 254 1187 q 287 1244 272 1229 q 322 1269 302 1259 q 366 1279 342 1279 q 450 1247 414 1279 q 487 1165 487 1215 q 453 1080 487 1115 q 369 1046 420 1046 "},"¸":{"x_min":-15.34375,"x_max":351,"ha":361,"o":"m 176 -83 q 238 -86 206 -83 q 294 -101 269 -89 q 335 -136 319 -113 q 351 -198 351 -159 q 330 -262 351 -235 q 280 -303 310 -288 q 217 -326 251 -319 q 158 -333 184 -333 q 68 -321 116 -333 q -15 -291 20 -309 l 19 -226 q 63 -241 36 -233 q 126 -250 90 -250 q 158 -247 143 -250 q 188 -240 174 -245 q 209 -227 201 -236 q 218 -205 218 -219 q 193 -169 218 -180 q 148 -158 169 -158 q 98 -169 124 -158 l 54 -128 l 140 0 l 233 0 l 176 -83 "},"a":{"x_min":40,"x_max":689,"ha":746,"o":"m 445 293 q 386 293 422 293 q 318 283 351 293 q 262 253 285 273 q 240 199 240 234 q 271 143 240 161 q 338 125 303 125 q 397 133 369 125 q 448 156 426 141 q 484 194 470 171 q 497 249 497 217 l 497 293 l 445 293 m 497 84 l 494 84 q 402 6 459 30 q 280 -17 344 -17 q 189 -3 233 -17 q 112 36 145 9 q 59 101 78 62 q 40 192 40 140 q 61 291 40 250 q 119 358 83 331 q 203 399 156 384 q 301 421 251 414 q 403 428 352 428 q 497 428 454 428 q 457 517 497 484 q 363 550 417 550 q 269 528 312 550 q 194 469 227 507 l 83 583 q 219 664 141 637 q 380 692 297 692 q 531 669 472 692 q 625 601 590 646 q 675 492 661 557 q 689 343 689 427 l 689 0 l 497 0 l 497 84 "},"—":{"x_min":0,"x_max":1389,"ha":1389,"o":"m 0 430 l 1389 430 l 1389 263 l 0 263 l 0 430 "},"=":{"x_min":82,"x_max":843,"ha":925,"o":"m 82 375 l 843 375 l 843 200 l 82 200 l 82 375 m 82 642 l 843 642 l 843 467 l 82 467 l 82 642 "},"N":{"x_min":100,"x_max":1032,"ha":1132,"o":"m 100 984 l 394 984 l 812 300 l 815 300 l 815 984 l 1032 984 l 1032 0 l 748 0 l 319 700 l 317 700 l 317 0 l 100 0 l 100 984 "},"˚":{"x_min":26,"x_max":334,"ha":360,"o":"m 109 911 q 129 860 109 881 q 180 840 150 840 q 230 860 209 840 q 251 911 251 881 q 230 961 251 940 q 180 982 209 982 q 129 961 150 982 q 109 911 109 940 m 180 757 q 120 769 148 757 q 71 802 92 781 q 38 851 50 823 q 26 911 26 879 q 38 970 26 942 q 71 1019 50 998 q 120 1052 92 1040 q 180 1065 148 1065 q 239 1052 211 1065 q 288 1019 267 1040 q 321 970 309 998 q 334 911 334 942 q 321 851 334 879 q 288 802 309 823 q 239 769 267 781 q 180 757 211 757 "},"ú":{"x_min":74,"x_max":724,"ha":798,"o":"m 724 0 l 524 0 l 524 91 l 521 91 q 492 52 510 71 q 450 17 475 32 q 393 -7 425 2 q 324 -17 361 -17 q 195 7 244 -17 q 119 74 146 31 q 83 176 92 117 q 74 302 74 234 l 74 675 l 284 675 l 284 344 q 284 283 284 315 q 294 226 284 252 q 326 183 305 199 q 389 166 348 166 q 455 181 430 166 q 493 219 480 195 q 511 274 507 244 q 515 338 515 305 l 515 675 l 724 675 l 724 0 m 400 983 l 683 983 l 443 783 l 260 783 l 400 983 "},"2":{"x_min":68,"x_max":754,"ha":822,"o":"m 68 220 l 450 564 q 508 624 479 590 q 537 702 537 657 q 501 780 537 752 q 415 809 464 809 q 323 772 356 809 q 290 691 290 736 l 82 691 q 109 827 82 769 q 183 923 137 885 q 291 981 229 962 q 426 1001 354 1001 q 552 982 493 1001 q 653 926 610 963 q 721 834 697 889 q 746 704 746 778 q 736 619 746 657 q 709 549 726 581 q 668 492 691 518 q 616 440 644 465 l 318 183 l 754 183 l 754 0 l 68 0 l 68 220 "},"ü":{"x_min":74,"x_max":724,"ha":798,"o":"m 724 0 l 524 0 l 524 91 l 521 91 q 492 52 510 71 q 450 17 475 32 q 393 -7 425 2 q 324 -17 361 -17 q 195 7 244 -17 q 119 74 146 31 q 83 176 92 117 q 74 302 74 234 l 74 675 l 284 675 l 284 344 q 284 283 284 315 q 294 226 284 252 q 326 183 305 199 q 389 166 348 166 q 455 181 430 166 q 493 219 480 195 q 511 274 507 244 q 515 338 515 305 l 515 675 l 724 675 l 724 0 m 542 775 q 496 784 517 775 q 460 811 475 794 q 436 849 445 827 q 427 894 427 870 q 436 937 427 916 q 460 973 445 958 q 495 998 475 988 q 539 1008 515 1008 q 623 976 587 1008 q 660 894 660 944 q 626 809 660 844 q 542 775 593 775 m 253 775 q 207 784 228 775 q 171 811 186 794 q 147 849 156 827 q 138 894 138 870 q 147 937 138 916 q 171 973 156 958 q 206 998 186 988 q 250 1008 226 1008 q 334 976 298 1008 q 371 894 371 944 q 337 809 371 844 q 253 775 304 775 "},"¯":{"x_min":-55,"x_max":417,"ha":362,"o":"m 417 821 l -55 821 l -55 954 l 417 954 l 417 821 "},"Z":{"x_min":49,"x_max":827,"ha":876,"o":"m 49 200 l 547 792 l 67 792 l 67 984 l 810 984 l 810 792 l 321 200 l 827 200 l 827 0 l 49 0 l 49 200 "},"u":{"x_min":74,"x_max":724,"ha":798,"o":"m 724 0 l 524 0 l 524 91 l 521 91 q 492 52 510 71 q 450 17 475 32 q 393 -7 425 2 q 324 -17 361 -17 q 195 7 244 -17 q 119 74 146 31 q 83 176 92 117 q 74 302 74 234 l 74 675 l 284 675 l 284 344 q 284 283 284 315 q 294 226 284 252 q 326 183 305 199 q 389 166 348 166 q 455 181 430 166 q 493 219 480 195 q 511 274 507 244 q 515 338 515 305 l 515 675 l 724 675 l 724 0 "},"˜":{"x_min":-91.671875,"x_max":452.78125,"ha":361,"o":"m -91 792 q -72 861 -86 826 q -36 923 -58 896 q 15 967 -15 950 q 84 984 45 984 q 147 975 119 984 q 205 954 175 967 q 243 940 225 947 q 283 934 262 934 q 320 948 306 934 q 344 984 334 963 l 452 984 q 433 908 445 943 q 399 848 420 874 q 346 807 377 822 q 272 792 315 792 q 214 801 241 792 q 163 821 187 810 q 118 841 140 832 q 76 851 97 851 q 38 831 52 851 q 18 792 25 811 l -91 792 "},"Ó":{"x_min":47,"x_max":1108,"ha":1155,"o":"m 272 492 q 293 364 272 422 q 355 264 315 307 q 451 198 395 222 q 577 175 508 175 q 703 198 646 175 q 799 264 759 222 q 861 364 839 307 q 883 492 883 422 q 861 618 883 560 q 799 719 839 676 q 703 785 759 761 q 577 809 646 809 q 451 785 508 809 q 355 719 395 761 q 293 618 315 676 q 272 492 272 560 m 47 492 q 86 706 47 610 q 196 869 126 801 q 365 972 267 936 q 577 1009 462 1009 q 789 972 692 1009 q 958 869 887 936 q 1068 706 1028 801 q 1108 492 1108 610 q 1068 277 1108 373 q 958 114 1028 182 q 789 11 887 47 q 577 -25 692 -25 q 365 11 462 -25 q 196 114 267 47 q 86 277 126 182 q 47 492 47 373 m 578 1255 l 862 1255 l 621 1055 l 438 1055 l 578 1255 "},"k":{"x_min":74,"x_max":775.390625,"ha":773,"o":"m 74 1051 l 282 1051 l 282 408 l 512 675 l 768 675 l 500 371 l 775 0 l 512 0 l 285 342 l 282 342 l 282 0 l 74 0 l 74 1051 "},"ˇ":{"x_min":-101.390625,"x_max":451.390625,"ha":361,"o":"m 90 984 l 177 875 l 263 984 l 451 984 l 286 784 l 59 784 l -101 984 l 90 984 "},"Ù":{"x_min":100,"x_max":929,"ha":1029,"o":"m 929 379 q 902 218 929 291 q 824 90 876 144 q 694 5 772 36 q 515 -25 616 -25 q 334 5 412 -25 q 204 90 256 36 q 126 218 152 144 q 100 379 100 291 l 100 984 l 317 984 l 317 387 q 331 302 317 341 q 372 235 346 263 q 435 190 398 206 q 515 175 472 175 q 594 190 558 175 q 656 235 630 206 q 697 302 682 263 q 712 387 712 341 l 712 984 l 929 984 l 929 379 m 656 1055 l 473 1055 l 233 1255 l 516 1255 l 656 1055 "},"Ÿ":{"x_min":-27.671875,"x_max":927.671875,"ha":900,"o":"m 342 419 l -27 984 l 241 984 l 450 615 l 670 984 l 927 984 l 559 419 l 559 0 l 342 0 l 342 419 m 593 1084 q 547 1093 568 1084 q 511 1120 526 1103 q 487 1158 496 1136 q 478 1203 478 1179 q 487 1246 478 1225 q 511 1282 496 1267 q 546 1307 526 1297 q 590 1317 566 1317 q 674 1285 638 1317 q 711 1203 711 1253 q 677 1118 711 1153 q 593 1084 644 1084 m 304 1084 q 258 1093 279 1084 q 222 1120 237 1103 q 198 1158 207 1136 q 189 1203 189 1179 q 198 1246 189 1225 q 222 1282 207 1267 q 257 1307 237 1297 q 301 1317 277 1317 q 385 1285 349 1317 q 422 1203 422 1253 q 388 1118 422 1153 q 304 1084 355 1084 "},"€":{"x_min":14.171875,"x_max":802.953125,"ha":822,"o":"m 802 104 q 676 16 757 49 q 502 -17 596 -17 q 253 66 347 -17 q 126 308 158 150 l 14 308 l 53 433 l 111 433 q 110 458 110 445 q 110 484 110 470 q 110 519 110 502 q 112 553 110 536 l 18 553 l 61 681 l 133 681 q 284 918 175 837 q 559 1000 393 1000 q 614 997 583 1000 q 677 988 646 994 q 734 975 708 983 q 775 959 761 968 l 711 779 q 649 803 690 793 q 559 814 608 814 q 436 782 489 814 q 352 681 383 751 l 679 681 l 637 553 l 323 553 q 321 522 321 537 q 321 490 321 506 q 321 460 321 474 q 322 433 321 446 l 605 433 l 565 308 l 343 308 q 407 202 364 240 q 522 164 451 164 q 619 186 579 164 q 689 244 659 208 l 802 104 "},"¢":{"x_min":106,"x_max":755.671875,"ha":822,"o":"m 431 517 q 335 454 365 504 q 306 338 306 404 q 335 226 306 274 q 431 158 365 177 l 431 517 m 431 -16 q 296 13 357 -16 q 194 90 236 42 q 128 200 151 137 q 106 335 106 263 q 128 471 106 409 q 194 578 151 532 q 296 654 236 625 q 431 692 357 683 l 431 783 l 514 783 l 514 692 q 641 671 584 692 q 752 605 698 651 l 619 464 q 564 504 591 491 q 514 517 537 517 l 514 158 q 532 159 522 158 q 557 166 543 160 q 589 184 572 171 q 629 217 607 196 l 755 68 q 697 27 729 44 q 632 1 665 10 q 568 -12 600 -8 q 514 -16 537 -16 l 514 -113 l 431 -113 l 431 -16 "},"ß":{"x_min":74,"x_max":825,"ha":875,"o":"m 74 712 q 429 1067 74 1067 q 545 1052 487 1067 q 648 1006 602 1037 q 722 927 694 975 q 750 812 750 879 q 716 676 750 731 q 609 590 683 620 l 609 587 q 771 487 718 565 q 825 301 825 409 q 800 168 825 227 q 731 68 775 109 q 627 5 687 27 q 494 -17 567 -17 q 366 0 429 -17 l 366 169 q 433 158 401 158 q 507 167 472 158 q 568 197 541 177 q 609 248 594 217 q 625 320 625 278 q 570 449 625 409 q 434 490 516 490 l 407 490 l 407 665 l 423 665 q 513 692 476 665 q 550 775 550 720 q 539 821 550 801 q 511 855 529 841 q 470 876 493 869 q 423 883 448 883 q 321 846 360 883 q 282 747 282 809 l 282 0 l 74 0 l 74 712 "},"é":{"x_min":53,"x_max":745,"ha":798,"o":"m 536 414 q 499 504 536 466 q 406 542 463 542 q 345 530 372 542 q 300 502 319 519 q 271 462 281 484 q 261 414 261 439 l 536 414 m 712 116 q 586 17 662 52 q 428 -17 510 -17 q 281 8 350 -17 q 162 79 212 33 q 82 191 111 126 q 53 337 53 256 q 82 483 53 418 q 162 595 111 548 q 281 666 212 641 q 428 692 350 692 q 559 666 500 692 q 659 595 618 641 q 722 483 700 548 q 745 337 745 418 l 745 272 l 261 272 q 315 176 273 212 q 417 141 356 141 q 504 163 469 141 q 566 223 540 186 l 712 116 m 399 983 l 683 983 l 442 783 l 259 783 l 399 983 "},"s":{"x_min":33.328125,"x_max":610,"ha":643,"o":"m 455 476 q 334 533 410 533 q 283 520 308 533 q 258 477 258 507 q 284 440 258 452 q 349 419 309 428 q 434 400 389 410 q 519 367 479 389 q 584 307 558 345 q 610 205 610 269 q 581 97 610 139 q 508 29 553 55 q 408 -6 464 3 q 298 -17 352 -17 q 155 3 227 -17 q 33 74 83 23 l 159 214 q 224 159 188 178 q 307 141 259 141 q 372 151 343 141 q 401 189 401 161 q 375 229 401 216 q 310 251 350 242 q 225 270 270 260 q 140 302 180 281 q 75 361 101 323 q 50 463 50 399 q 74 566 50 522 q 138 636 98 609 q 229 677 177 664 q 333 691 280 691 q 468 671 400 691 q 583 602 536 652 l 455 476 "},"B":{"x_min":100,"x_max":872,"ha":900,"o":"m 317 183 l 510 183 q 561 188 535 183 q 607 208 587 194 q 641 244 628 222 q 655 298 655 266 q 637 354 655 333 q 594 387 620 376 q 537 402 567 398 q 480 407 506 407 l 317 407 l 317 183 m 317 590 l 473 590 q 523 595 498 590 q 566 614 547 601 q 598 647 586 626 q 610 697 610 668 q 596 748 610 728 q 562 779 583 768 q 515 795 541 790 q 464 800 489 800 l 317 800 l 317 590 m 100 984 l 466 984 q 595 974 530 984 q 711 938 660 965 q 795 863 763 911 q 827 733 827 814 q 780 595 827 650 q 657 516 733 540 l 657 514 q 745 486 705 507 q 813 435 784 466 q 856 362 841 404 q 872 273 872 320 q 838 143 872 195 q 752 59 805 91 q 633 13 699 27 q 502 0 567 0 l 100 0 l 100 984 "},"…":{"x_min":104,"x_max":1284,"ha":1388,"o":"m 1028 120 q 1037 170 1028 146 q 1064 211 1047 193 q 1105 238 1082 228 q 1156 248 1129 248 q 1206 238 1182 248 q 1247 211 1229 228 q 1274 170 1264 193 q 1284 120 1284 146 q 1274 69 1284 93 q 1247 28 1264 46 q 1206 1 1229 11 q 1156 -8 1182 -8 q 1105 1 1129 -8 q 1064 28 1082 11 q 1037 69 1047 46 q 1028 120 1028 93 m 566 120 q 575 170 566 146 q 602 211 585 193 q 643 238 620 228 q 694 248 667 248 q 744 238 720 248 q 785 211 767 228 q 812 170 802 193 q 822 120 822 146 q 812 69 822 93 q 785 28 802 46 q 744 1 767 11 q 694 -8 720 -8 q 643 1 667 -8 q 602 28 620 11 q 575 69 585 46 q 566 120 566 93 m 104 120 q 113 170 104 146 q 140 211 123 193 q 181 238 158 228 q 231 248 205 248 q 282 238 258 248 q 323 211 305 228 q 350 170 340 193 q 360 120 360 146 q 350 69 360 93 q 323 28 340 46 q 282 1 305 11 q 231 -8 258 -8 q 181 1 205 -8 q 140 28 158 11 q 113 69 123 46 q 104 120 104 93 "},"?":{"x_min":74.609375,"x_max":734.328125,"ha":772,"o":"m 276 120 q 285 170 276 146 q 312 211 295 193 q 353 238 330 228 q 404 248 377 248 q 454 238 430 248 q 495 211 477 228 q 522 170 512 193 q 532 120 532 146 q 522 69 532 93 q 495 28 512 46 q 454 1 477 11 q 404 -8 430 -8 q 353 1 377 -8 q 312 28 330 11 q 285 69 295 46 q 276 120 276 93 m 299 386 q 310 457 299 427 q 348 511 321 486 q 419 576 387 548 q 476 628 452 604 q 512 674 499 653 q 526 719 526 696 q 497 791 526 765 q 424 817 468 817 q 324 780 358 817 q 290 700 290 744 l 74 700 q 182 930 89 851 q 421 1009 276 1009 q 541 991 485 1009 q 641 939 598 974 q 709 853 684 904 q 734 735 734 801 q 726 662 734 694 q 697 597 717 629 q 644 532 677 565 q 562 461 612 500 q 519 412 530 436 q 508 365 508 389 l 508 325 l 299 325 l 299 386 "},"H":{"x_min":100,"x_max":954,"ha":1054,"o":"m 100 984 l 317 984 l 317 617 l 737 617 l 737 984 l 954 984 l 954 0 l 737 0 l 737 425 l 317 425 l 317 0 l 100 0 l 100 984 "},"î":{"x_min":-96.21875,"x_max":456.546875,"ha":361,"o":"m 76 675 l 284 675 l 284 0 l 76 0 l 76 675 m 264 784 l 177 892 l 91 784 l -96 784 l 69 984 l 295 984 l 456 784 l 264 784 "},"c":{"x_min":53,"x_max":668.28125,"ha":670,"o":"m 530 456 q 487 493 515 478 q 428 508 459 508 q 305 460 348 508 q 261 337 261 413 q 305 213 261 260 q 428 166 348 166 q 487 181 462 166 q 530 217 512 196 l 668 73 q 553 3 619 23 q 428 -17 487 -17 q 281 8 350 -17 q 162 79 212 33 q 82 191 111 126 q 53 337 53 256 q 82 483 53 417 q 162 594 111 548 q 281 666 212 641 q 428 691 350 691 q 553 671 487 691 q 668 601 619 651 l 530 456 "},"¶":{"x_min":18.28125,"x_max":779,"ha":861,"o":"m 328 498 q 97 560 176 498 q 18 735 18 623 q 44 858 18 810 q 116 934 71 906 q 225 972 162 962 q 359 983 287 983 l 779 983 l 779 -185 l 629 -185 l 629 850 l 478 850 l 478 -185 l 328 -185 l 328 498 "},"•":{"x_min":101,"x_max":593,"ha":694,"o":"m 101 492 q 120 587 101 543 q 173 665 139 632 q 251 718 206 699 q 346 738 295 738 q 442 718 398 738 q 520 665 487 699 q 573 587 554 632 q 593 492 593 543 q 573 396 593 440 q 520 318 554 351 q 442 265 487 284 q 346 246 398 246 q 251 265 295 246 q 173 318 206 284 q 120 396 139 351 q 101 492 101 440 "},"¥":{"x_min":-50.0625,"x_max":872.046875,"ha":822,"o":"m 303 220 l 68 220 l 68 353 l 303 353 l 303 420 l 286 448 l 68 448 l 68 581 l 207 581 l -50 983 l 202 983 l 411 617 l 619 983 l 872 983 l 615 581 l 754 581 l 754 448 l 536 448 l 520 420 l 520 353 l 754 353 l 754 220 l 520 220 l 520 0 l 303 0 l 303 220 "},"(":{"x_min":61,"x_max":407.15625,"ha":436,"o":"m 407 933 q 332 805 365 867 q 275 681 298 744 q 240 549 253 618 q 228 400 228 480 q 240 250 228 319 q 275 118 253 182 q 332 -5 298 55 q 407 -133 365 -66 l 264 -216 l 261 -211 q 113 79 165 -68 q 61 400 61 227 q 113 720 61 572 q 261 1011 165 868 l 264 1017 l 407 933 "},"U":{"x_min":100,"x_max":929,"ha":1029,"o":"m 929 379 q 902 218 929 291 q 824 90 876 144 q 694 5 772 36 q 515 -25 616 -25 q 334 5 412 -25 q 204 90 256 36 q 126 218 152 144 q 100 379 100 291 l 100 984 l 317 984 l 317 387 q 331 302 317 341 q 372 235 346 263 q 435 190 398 206 q 515 175 472 175 q 594 190 558 175 q 656 235 630 206 q 697 302 682 263 q 712 387 712 341 l 712 984 l 929 984 l 929 379 "},"Ñ":{"x_min":100,"x_max":1032,"ha":1132,"o":"m 100 984 l 394 984 l 812 300 l 815 300 l 815 984 l 1032 984 l 1032 0 l 748 0 l 319 700 l 317 700 l 317 0 l 100 0 l 100 984 m 294 1063 q 314 1132 300 1097 q 349 1194 328 1167 q 401 1238 371 1221 q 470 1255 432 1255 q 533 1246 505 1255 q 591 1225 561 1238 q 629 1211 611 1218 q 669 1205 648 1205 q 706 1219 692 1205 q 730 1255 720 1234 l 838 1255 q 819 1179 831 1214 q 785 1119 806 1145 q 732 1078 763 1093 q 658 1063 701 1063 q 600 1072 627 1063 q 550 1092 573 1081 q 504 1112 526 1103 q 462 1122 483 1122 q 425 1102 439 1122 q 404 1063 411 1082 l 294 1063 "},"F":{"x_min":108,"x_max":768.0625,"ha":824,"o":"m 108 984 l 768 984 l 768 784 l 325 784 l 325 584 l 734 584 l 734 384 l 325 384 l 325 0 l 108 0 l 108 984 "},"­":{"x_min":35,"x_max":377,"ha":412,"o":"m 377 263 l 35 263 l 35 430 l 377 430 l 377 263 "},":":{"x_min":78,"x_max":334,"ha":412,"o":"m 78 564 q 87 614 78 590 q 114 655 97 637 q 155 682 132 672 q 206 692 179 692 q 256 682 232 692 q 297 655 279 672 q 324 614 314 637 q 334 564 334 590 q 324 513 334 537 q 297 472 314 490 q 256 445 279 455 q 206 436 232 436 q 155 445 179 436 q 114 472 132 455 q 87 513 97 490 q 78 564 78 537 m 78 120 q 87 170 78 146 q 114 211 97 193 q 155 238 132 228 q 206 248 179 248 q 256 238 232 248 q 297 211 279 228 q 324 170 314 193 q 334 120 334 146 q 324 69 334 93 q 297 28 314 46 q 256 1 279 11 q 206 -8 232 -8 q 155 1 179 -8 q 114 28 132 11 q 87 69 97 46 q 78 120 78 93 "},"Û":{"x_min":100,"x_max":929,"ha":1029,"o":"m 929 379 q 902 218 929 291 q 824 90 876 144 q 694 5 772 36 q 515 -25 616 -25 q 334 5 412 -25 q 204 90 256 36 q 126 218 152 144 q 100 379 100 291 l 100 984 l 317 984 l 317 387 q 331 302 317 341 q 372 235 346 263 q 435 190 398 206 q 515 175 472 175 q 594 190 558 175 q 656 235 630 206 q 697 302 682 263 q 712 387 712 341 l 712 984 l 929 984 l 929 379 m 599 1055 l 512 1163 l 426 1055 l 239 1055 l 404 1255 l 630 1255 l 791 1055 l 599 1055 "},"*":{"x_min":38.609375,"x_max":630.625,"ha":670,"o":"m 407 792 l 588 852 l 630 719 l 448 661 l 563 503 l 448 418 l 331 578 l 219 425 l 106 510 l 223 661 l 38 725 l 83 857 l 265 792 l 265 984 l 407 984 l 407 792 "},"†":{"x_min":47,"x_max":775,"ha":822,"o":"m 311 517 l 47 517 l 47 692 l 311 692 l 311 984 l 503 984 l 503 692 l 775 692 l 775 517 l 503 517 l 503 -185 l 311 -185 l 311 517 "},"°":{"x_min":39,"x_max":517,"ha":556,"o":"m 278 522 q 184 540 227 522 q 109 592 141 559 q 57 667 76 624 q 39 761 39 710 q 57 854 39 811 q 109 929 76 897 q 184 981 141 962 q 278 1000 227 1000 q 371 981 328 1000 q 446 929 414 962 q 498 854 479 897 q 517 761 517 811 q 498 667 517 710 q 446 592 479 624 q 371 540 414 559 q 278 522 328 522 m 278 639 q 364 674 329 639 q 400 761 400 709 q 364 847 400 812 q 278 883 329 883 q 191 847 226 883 q 156 761 156 812 q 191 674 156 709 q 278 639 226 639 "},"V":{"x_min":2.78125,"x_max":975,"ha":978,"o":"m 2 984 l 250 984 l 493 339 l 495 339 l 743 984 l 975 984 l 569 0 l 395 0 l 2 984 "},"å":{"x_min":40,"x_max":689,"ha":746,"o":"m 445 293 q 386 293 422 293 q 318 283 351 293 q 262 253 285 273 q 240 199 240 234 q 271 143 240 161 q 338 125 303 125 q 397 133 369 125 q 448 156 426 141 q 484 194 470 171 q 497 249 497 217 l 497 293 l 445 293 m 497 84 l 494 84 q 401 6 459 30 q 280 -17 344 -17 q 189 -3 233 -17 q 112 36 145 9 q 59 101 78 62 q 40 192 40 140 q 61 291 40 250 q 119 358 83 331 q 203 399 156 384 q 301 421 251 414 q 403 428 352 428 q 497 428 453 428 q 457 517 497 484 q 363 550 417 550 q 269 528 312 550 q 194 469 227 507 l 83 583 q 219 664 141 637 q 380 692 297 692 q 531 669 472 692 q 625 601 590 646 q 675 492 661 557 q 689 343 689 427 l 689 0 l 497 0 l 497 84 m 302 911 q 322 860 302 881 q 373 840 343 840 q 423 860 402 840 q 444 911 444 881 q 423 961 444 940 q 373 982 402 982 q 322 961 343 982 q 302 911 302 940 m 373 757 q 313 769 341 757 q 264 802 285 781 q 231 851 243 823 q 219 911 219 879 q 231 970 219 942 q 264 1019 243 998 q 313 1052 285 1040 q 373 1065 341 1065 q 432 1052 404 1065 q 481 1019 460 1040 q 514 970 502 998 q 527 911 527 942 q 514 851 527 879 q 481 802 502 823 q 432 769 460 781 q 373 757 404 757 "}," ":{"x_min":0,"x_max":0,"ha":411},"0":{"x_min":46,"x_max":777,"ha":823,"o":"m 257 491 q 257 398 257 452 q 272 294 257 344 q 320 209 288 244 q 410 175 352 175 q 500 209 467 175 q 548 294 532 244 q 564 398 564 344 q 564 491 564 452 q 564 584 564 530 q 548 688 564 638 q 500 773 532 738 q 410 808 467 808 q 320 773 352 808 q 272 688 288 738 q 257 584 257 638 q 257 491 257 530 m 46 491 q 61 669 46 579 q 118 833 77 759 q 230 953 159 906 q 411 1000 301 1000 q 592 953 521 1000 q 704 833 663 906 q 761 669 745 759 q 777 491 777 579 q 761 313 777 403 q 704 149 745 223 q 592 29 663 76 q 411 -17 521 -17 q 230 29 301 -17 q 118 149 159 76 q 61 313 77 223 q 46 491 46 403 "},"”":{"x_min":61.109375,"x_max":661.109375,"ha":722,"o":"m 238 592 l 61 592 l 163 984 l 363 984 l 238 592 m 536 592 l 358 592 l 461 984 l 661 984 l 536 592 "},"¾":{"x_min":6,"x_max":1229,"ha":1235,"o":"m 858 1027 l 975 962 l 402 -44 l 296 15 l 858 1027 m 1000 424 l 997 424 l 859 235 l 1000 235 l 1000 424 m 1000 118 l 710 118 l 710 226 l 986 591 l 1150 591 l 1150 235 l 1229 235 l 1229 118 l 1150 118 l 1150 0 l 1000 0 l 1000 118 m 181 767 l 228 767 q 266 769 247 767 q 299 778 285 771 q 322 797 314 785 q 331 829 331 809 q 310 863 331 851 q 253 875 289 875 q 195 859 219 875 q 164 814 171 843 l 12 841 q 46 916 24 886 q 101 964 69 945 q 171 991 132 983 q 253 1000 210 1000 q 339 990 297 1000 q 412 961 381 980 q 462 911 443 941 q 481 841 481 882 q 451 757 481 793 q 366 712 422 722 l 366 710 q 460 662 426 703 q 494 571 494 622 q 474 493 494 526 q 421 437 455 459 q 343 404 388 415 q 249 393 299 393 q 92 430 157 393 q 6 557 26 468 l 157 588 q 186 536 164 555 q 249 518 208 518 q 316 533 289 518 q 344 585 344 549 q 332 622 344 609 q 303 642 321 636 q 262 649 285 649 q 215 649 239 649 l 181 649 l 181 767 "},"@":{"x_min":44,"x_max":1066,"ha":1110,"o":"m 788 468 q 780 422 784 449 q 776 376 776 396 q 783 349 776 361 q 813 338 791 338 q 857 349 835 338 q 895 387 878 361 q 922 451 912 413 q 933 545 933 490 q 905 691 933 628 q 830 797 878 754 q 716 862 783 840 q 570 884 649 884 q 413 854 484 884 q 292 772 342 825 q 213 647 241 719 q 186 490 186 575 q 216 326 186 398 q 301 204 247 254 q 431 127 356 154 q 594 100 506 100 q 739 122 673 100 q 856 185 805 144 l 1009 185 q 822 28 934 82 q 582 -25 710 -25 q 373 13 471 -25 q 202 119 275 51 q 86 282 128 187 q 44 490 44 378 q 85 696 44 601 q 199 860 127 790 q 368 969 271 929 q 574 1009 464 1009 q 754 979 666 1009 q 911 890 842 949 q 1023 747 981 832 q 1066 551 1066 661 q 1048 424 1066 478 q 1004 332 1031 369 q 942 271 976 294 q 874 235 908 247 q 808 217 840 222 q 756 213 777 213 q 673 236 698 213 q 648 288 648 260 l 645 288 q 575 236 617 260 q 467 213 534 213 q 386 230 423 213 q 323 278 349 247 q 282 351 297 308 q 268 446 268 395 q 287 563 268 507 q 342 663 306 620 q 429 733 377 707 q 545 759 480 759 q 637 740 601 759 q 695 680 674 722 l 698 680 l 709 742 l 840 742 l 788 468 m 659 506 q 634 597 659 561 q 556 634 609 634 q 455 583 492 634 q 418 461 418 533 q 422 417 418 439 q 436 377 426 394 q 465 349 447 360 q 513 338 484 338 q 585 353 556 338 q 630 392 613 368 q 653 447 646 417 q 659 506 659 476 "},"ö":{"x_min":49,"x_max":799,"ha":848,"o":"m 257 337 q 301 213 257 260 q 424 166 344 166 q 546 213 503 166 q 590 337 590 260 q 546 460 590 413 q 424 508 503 508 q 301 460 344 508 q 257 337 257 413 m 49 337 q 78 483 49 417 q 158 594 107 548 q 277 666 208 641 q 424 691 346 691 q 570 666 501 691 q 689 594 639 641 q 769 483 740 548 q 799 337 799 417 q 769 191 799 256 q 689 79 740 126 q 570 8 639 33 q 424 -17 501 -17 q 277 8 346 -17 q 158 79 208 33 q 78 191 107 126 q 49 337 49 256 m 567 775 q 521 784 542 775 q 485 811 500 794 q 461 849 470 827 q 452 894 452 870 q 461 937 452 916 q 485 973 470 958 q 520 998 500 988 q 564 1008 540 1008 q 648 976 612 1008 q 685 894 685 944 q 651 809 685 844 q 567 775 618 775 m 278 775 q 232 784 253 775 q 196 811 211 794 q 172 849 181 827 q 163 894 163 870 q 172 937 163 916 q 196 973 181 958 q 231 998 211 988 q 275 1008 251 1008 q 359 976 323 1008 q 396 894 396 944 q 362 809 396 844 q 278 775 329 775 "},"i":{"x_min":60,"x_max":302,"ha":362,"o":"m 60 888 q 95 973 60 938 q 181 1009 130 1009 q 266 973 231 1009 q 302 888 302 938 q 266 802 302 837 q 181 767 231 767 q 95 802 130 767 q 60 888 60 837 m 76 675 l 285 675 l 285 0 l 76 0 l 76 675 "},"Õ":{"x_min":47,"x_max":1108,"ha":1155,"o":"m 272 492 q 293 364 272 422 q 355 264 315 307 q 451 198 395 222 q 577 175 508 175 q 703 198 646 175 q 799 264 759 222 q 861 364 839 307 q 883 492 883 422 q 861 618 883 560 q 799 719 839 676 q 703 785 759 761 q 577 809 646 809 q 451 785 508 809 q 355 719 395 761 q 293 618 315 676 q 272 492 272 560 m 47 492 q 86 706 47 610 q 196 869 126 801 q 365 972 267 936 q 577 1009 462 1009 q 789 972 692 1009 q 958 869 887 936 q 1068 706 1028 801 q 1108 492 1108 610 q 1068 277 1108 373 q 958 114 1028 182 q 789 11 887 47 q 577 -25 692 -25 q 365 11 462 -25 q 196 114 267 47 q 86 277 126 182 q 47 492 47 373 m 305 1063 q 324 1132 310 1097 q 360 1194 338 1167 q 412 1238 381 1221 q 481 1255 442 1255 q 544 1246 516 1255 q 602 1225 571 1238 q 640 1211 621 1218 q 680 1205 659 1205 q 717 1219 703 1205 q 741 1255 731 1234 l 849 1255 q 830 1179 842 1214 q 796 1119 817 1145 q 743 1078 774 1093 q 669 1063 712 1063 q 611 1072 638 1063 q 560 1092 584 1081 q 515 1112 537 1103 q 473 1122 494 1122 q 435 1102 449 1122 q 415 1063 421 1082 l 305 1063 "},"þ":{"x_min":93,"x_max":826.328125,"ha":875,"o":"m 284 337 q 328 213 284 261 q 451 166 372 166 q 574 213 530 166 q 618 337 618 261 q 574 461 618 413 q 451 508 530 508 q 328 461 372 508 q 284 337 284 413 m 93 1050 l 301 1050 l 301 603 l 304 603 q 336 639 316 623 q 382 667 356 655 q 436 685 408 679 q 494 692 465 692 q 630 666 569 692 q 735 593 691 640 q 802 483 779 547 q 826 343 826 419 q 804 207 826 272 q 743 92 783 142 q 647 12 704 42 q 518 -17 590 -17 q 396 3 452 -17 q 304 72 340 23 l 301 72 l 301 -317 l 93 -317 l 93 1050 "},"]":{"x_min":28,"x_max":320,"ha":412,"o":"m 28 -92 l 153 -92 l 153 399 l 153 892 l 28 892 l 28 1017 l 320 1017 l 320 -217 l 28 -217 l 28 -92 "},"m":{"x_min":74,"x_max":1135,"ha":1209,"o":"m 74 675 l 274 675 l 274 584 l 276 584 q 304 622 286 603 q 347 657 322 642 q 404 682 372 672 q 474 692 436 692 q 599 662 544 692 q 682 571 654 633 q 770 664 718 636 q 896 692 821 692 q 1010 669 964 692 q 1084 606 1057 646 q 1123 513 1111 566 q 1135 398 1135 459 l 1135 0 l 926 0 l 926 393 q 906 474 926 440 q 835 508 886 508 q 774 496 799 508 q 736 464 750 484 q 715 415 721 443 q 709 357 709 387 l 709 0 l 499 0 l 499 357 q 499 401 499 375 q 490 451 499 428 q 463 492 482 475 q 408 509 444 509 q 342 494 367 509 q 304 455 317 479 q 286 400 290 430 q 282 336 282 369 l 282 0 l 74 0 l 74 675 "},"8":{"x_min":65,"x_max":757,"ha":822,"o":"m 273 298 q 310 211 273 247 q 411 175 348 175 q 511 211 473 175 q 548 298 548 247 q 511 386 548 350 q 411 423 473 423 q 310 386 348 423 q 273 298 273 350 m 290 699 q 323 621 290 653 q 410 590 356 590 q 498 621 465 590 q 531 699 531 653 q 498 776 531 744 q 410 808 465 808 q 323 776 356 808 q 290 699 290 744 m 81 728 q 107 847 81 797 q 178 932 133 898 q 283 983 223 966 q 410 1000 342 1000 q 538 983 478 1000 q 642 932 598 966 q 713 847 687 898 q 740 728 740 797 q 696 591 740 648 q 573 510 652 534 l 573 507 q 709 422 662 484 q 757 269 757 360 q 728 144 757 198 q 652 54 700 89 q 541 1 604 19 q 410 -17 479 -17 q 280 1 342 -17 q 169 54 217 19 q 93 144 121 89 q 65 269 65 198 q 112 422 65 360 q 248 507 159 484 l 248 510 q 125 591 169 534 q 81 728 81 648 "},"ž":{"x_min":47,"x_max":647,"ha":694,"o":"m 47 208 l 397 508 l 56 508 l 56 675 l 639 675 l 639 474 l 272 167 l 647 167 l 647 0 l 47 0 l 47 208 m 257 984 l 344 875 l 430 984 l 618 984 l 453 784 l 226 784 l 65 984 l 257 984 "},"R":{"x_min":100,"x_max":888.5,"ha":900,"o":"m 317 578 l 444 578 q 506 578 473 578 q 565 588 538 578 q 608 621 591 599 q 626 684 626 644 q 610 745 626 722 q 571 779 595 767 q 517 795 548 791 q 458 800 487 800 l 317 800 l 317 578 m 100 983 l 480 983 q 622 968 555 983 q 740 920 689 954 q 821 828 791 886 q 851 684 851 770 q 796 507 851 580 q 638 415 742 434 l 888 0 l 628 0 l 423 393 l 317 393 l 317 0 l 100 0 l 100 983 "},"á":{"x_min":40,"x_max":689,"ha":746,"o":"m 445 293 q 386 293 422 293 q 318 283 351 293 q 262 253 285 273 q 240 199 240 234 q 271 143 240 161 q 338 125 303 125 q 397 133 369 125 q 448 156 426 141 q 484 194 470 171 q 497 249 497 217 l 497 293 l 445 293 m 497 84 l 494 84 q 402 6 459 29 q 280 -17 344 -17 q 189 -3 233 -17 q 112 36 145 9 q 59 101 78 62 q 40 192 40 140 q 61 291 40 250 q 119 358 83 331 q 203 399 156 384 q 301 421 251 414 q 403 428 352 428 q 497 428 454 428 q 457 517 497 484 q 363 550 417 550 q 269 528 312 550 q 194 469 227 507 l 83 583 q 219 664 141 637 q 380 692 297 692 q 531 669 472 692 q 625 601 590 646 q 675 492 661 557 q 689 342 689 427 l 689 0 l 497 0 l 497 84 m 374 983 l 658 983 l 417 783 l 234 783 l 374 983 "},"×":{"x_min":88.890625,"x_max":836.109375,"ha":925,"o":"m 218 792 l 463 548 l 702 790 l 826 671 l 586 421 l 836 180 l 708 51 l 463 295 l 218 50 l 94 169 l 336 421 l 88 660 l 218 792 "},"o":{"x_min":49,"x_max":799,"ha":848,"o":"m 257 337 q 301 213 257 260 q 424 166 344 166 q 546 213 503 166 q 590 337 590 260 q 546 460 590 413 q 424 508 503 508 q 301 460 344 508 q 257 337 257 413 m 49 337 q 78 483 49 417 q 158 594 107 548 q 277 666 208 641 q 424 691 346 691 q 570 666 501 691 q 689 594 639 641 q 769 483 740 548 q 799 337 799 417 q 769 191 799 256 q 689 79 740 126 q 570 8 639 33 q 424 -17 501 -17 q 277 8 346 -17 q 158 79 208 33 q 78 191 107 126 q 49 337 49 256 "},"5":{"x_min":44.375,"x_max":751.328125,"ha":822,"o":"m 718 800 l 325 800 l 325 648 q 411 659 355 659 q 548 637 486 659 q 656 572 611 615 q 726 470 701 530 q 751 334 751 409 q 722 185 751 251 q 644 75 694 120 q 525 6 594 30 q 376 -17 456 -17 q 162 45 248 -17 q 44 234 76 108 l 262 284 q 306 199 270 231 q 397 166 343 166 q 503 208 463 166 q 543 313 543 249 q 522 393 543 362 q 470 443 502 424 q 397 469 437 462 q 316 476 356 476 q 213 466 265 476 q 118 440 161 456 l 118 983 l 718 983 l 718 800 "},"õ":{"x_min":49,"x_max":799,"ha":848,"o":"m 257 337 q 301 213 257 260 q 424 166 344 166 q 546 213 503 166 q 590 337 590 260 q 546 460 590 413 q 424 508 503 508 q 301 460 344 508 q 257 337 257 413 m 49 337 q 78 483 49 417 q 158 594 107 548 q 277 666 208 641 q 424 691 346 691 q 570 666 501 691 q 689 594 639 641 q 769 483 740 548 q 799 337 799 417 q 769 191 799 256 q 689 79 740 126 q 570 8 639 33 q 424 -17 501 -17 q 277 8 346 -17 q 158 79 208 33 q 78 191 107 126 q 49 337 49 256 m 151 792 q 171 861 157 826 q 206 922 185 895 q 258 966 228 949 q 328 983 289 983 q 390 974 362 983 q 449 954 418 966 q 487 940 468 947 q 526 934 505 934 q 564 948 550 934 q 587 983 578 962 l 696 983 q 676 908 689 942 q 642 848 664 873 q 589 807 621 822 q 515 792 558 792 q 458 800 485 792 q 407 821 430 809 q 362 841 383 832 q 319 850 340 850 q 282 830 296 850 q 261 792 268 811 l 151 792 "},"7":{"x_min":51,"x_max":770,"ha":821,"o":"m 536 792 l 51 792 l 51 984 l 770 984 l 770 800 l 377 0 l 134 0 l 536 792 "},"K":{"x_min":108,"x_max":1027.78125,"ha":1003,"o":"m 108 984 l 325 984 l 325 575 l 706 984 l 990 984 l 552 526 l 1027 0 l 725 0 l 325 466 l 325 0 l 108 0 l 108 984 "},",":{"x_min":23.609375,"x_max":326.390625,"ha":411,"o":"m 126 225 l 326 225 l 201 -167 l 23 -167 l 126 225 "},"d":{"x_min":49,"x_max":782.328125,"ha":875,"o":"m 590 337 q 546 460 590 413 q 424 508 503 508 q 301 460 344 508 q 257 337 257 413 q 301 213 257 260 q 424 166 344 166 q 546 213 503 166 q 590 337 590 260 m 782 -1 l 590 -1 l 590 89 l 587 89 q 555 51 575 70 q 508 17 535 33 q 448 -7 480 2 q 380 -17 415 -17 q 244 8 305 -17 q 139 80 183 34 q 72 191 96 127 q 49 331 49 255 q 70 467 49 402 q 131 581 92 531 q 228 661 171 631 q 357 691 285 691 q 478 671 422 691 q 571 603 535 651 l 574 603 l 574 1050 l 782 1050 l 782 -1 "},"¨":{"x_min":-80,"x_max":442,"ha":362,"o":"m 324 775 q 278 784 299 775 q 242 811 257 794 q 218 849 227 827 q 209 894 209 870 q 218 937 209 916 q 242 973 227 958 q 277 998 257 988 q 321 1008 297 1008 q 405 976 369 1008 q 442 894 442 944 q 408 809 442 844 q 324 775 375 775 m 35 775 q -10 784 10 775 q -46 811 -31 794 q -70 849 -61 827 q -80 894 -80 870 q -70 937 -80 916 q -46 973 -61 958 q -11 998 -31 988 q 32 1008 8 1008 q 116 976 80 1008 q 153 894 153 944 q 119 809 153 844 q 35 775 86 775 "},"Ô":{"x_min":47,"x_max":1108,"ha":1155,"o":"m 272 492 q 293 364 272 422 q 355 264 315 307 q 451 198 395 222 q 577 175 508 175 q 703 198 646 175 q 799 264 759 222 q 861 364 839 307 q 883 492 883 422 q 861 618 883 560 q 799 719 839 676 q 703 785 759 761 q 577 809 646 809 q 451 785 508 809 q 355 719 395 761 q 293 618 315 676 q 272 492 272 560 m 47 492 q 86 706 47 610 q 196 869 126 801 q 365 972 267 936 q 577 1009 462 1009 q 789 972 692 1009 q 958 869 887 936 q 1068 706 1028 801 q 1108 492 1108 610 q 1068 277 1108 373 q 958 114 1028 182 q 789 11 887 47 q 577 -25 692 -25 q 365 11 462 -25 q 196 114 267 47 q 86 277 126 182 q 47 492 47 373 m 662 1055 l 574 1163 l 488 1055 l 301 1055 l 466 1255 l 692 1255 l 853 1055 l 662 1055 "},"E":{"x_min":108,"x_max":801.390625,"ha":875,"o":"m 108 984 l 776 984 l 776 784 l 325 784 l 325 600 l 751 600 l 751 400 l 325 400 l 325 200 l 801 200 l 801 0 l 108 0 l 108 984 "},"Y":{"x_min":-27.453125,"x_max":928.453125,"ha":901,"o":"m 342 419 l -27 984 l 242 984 l 450 615 l 671 984 l 928 984 l 559 419 l 559 0 l 342 0 l 342 419 "},"\"":{"x_min":112,"x_max":609,"ha":722,"o":"m 112 984 l 287 984 l 287 592 l 112 592 l 112 984 m 434 984 l 609 984 l 609 592 l 434 592 l 434 984 "},"‹":{"x_min":25,"x_max":372.21875,"ha":411,"o":"m 211 346 l 372 105 l 245 20 l 25 346 l 245 671 l 372 586 l 211 346 "},"˙":{"x_min":64,"x_max":297,"ha":361,"o":"m 179 775 q 133 784 154 775 q 97 811 112 794 q 73 849 82 827 q 64 894 64 870 q 73 937 64 916 q 97 973 82 958 q 132 998 112 988 q 176 1008 152 1008 q 260 976 224 1008 q 297 894 297 944 q 263 809 297 844 q 179 775 230 775 "},"ê":{"x_min":53,"x_max":745,"ha":798,"o":"m 536 414 q 499 504 536 466 q 406 542 463 542 q 345 530 372 542 q 300 502 319 519 q 271 462 281 484 q 261 414 261 439 l 536 414 m 712 116 q 586 17 662 52 q 428 -17 510 -17 q 281 8 350 -17 q 162 79 212 33 q 82 191 111 126 q 53 337 53 256 q 82 483 53 418 q 162 595 111 548 q 281 666 212 641 q 428 692 350 692 q 559 666 500 692 q 659 595 618 641 q 722 483 700 548 q 745 337 745 418 l 745 272 l 261 272 q 315 176 273 212 q 417 141 356 141 q 504 163 469 141 q 566 223 540 186 l 712 116 m 483 783 l 395 891 l 309 783 l 122 783 l 287 983 l 513 983 l 675 783 l 483 783 "},"Ï":{"x_min":-55,"x_max":467,"ha":412,"o":"m 98 984 l 315 984 l 315 0 l 98 0 l 98 984 m 349 1047 q 303 1056 324 1047 q 267 1083 282 1066 q 243 1121 252 1099 q 234 1166 234 1142 q 243 1209 234 1188 q 267 1245 252 1230 q 302 1270 282 1260 q 346 1280 322 1280 q 430 1248 394 1280 q 467 1166 467 1216 q 433 1081 467 1116 q 349 1047 400 1047 m 60 1047 q 14 1056 35 1047 q -21 1083 -6 1066 q -45 1121 -36 1099 q -55 1166 -55 1142 q -45 1209 -55 1188 q -21 1245 -36 1230 q 13 1270 -6 1260 q 57 1280 33 1280 q 141 1248 105 1280 q 178 1166 178 1216 q 144 1081 178 1116 q 60 1047 111 1047 "},"„":{"x_min":61.109375,"x_max":661.109375,"ha":722,"o":"m 238 -175 l 61 -175 l 163 217 l 363 217 l 238 -175 m 536 -175 l 358 -175 l 461 217 l 661 217 l 536 -175 "},"Â":{"x_min":-1.390625,"x_max":1030.5625,"ha":1029,"o":"m 506 697 l 387 391 l 627 391 l 506 697 m 423 983 l 602 983 l 1030 0 l 786 0 l 701 208 l 319 208 l 237 0 l -1 0 l 423 983 m 600 1054 l 512 1162 l 426 1054 l 238 1054 l 404 1254 l 630 1254 l 791 1054 l 600 1054 "},"Í":{"x_min":66.453125,"x_max":490.390625,"ha":411,"o":"m 97 984 l 314 984 l 314 0 l 97 0 l 97 984 m 206 1255 l 490 1255 l 250 1055 l 66 1055 l 206 1255 "},"´":{"x_min":41.671875,"x_max":465.28125,"ha":361,"o":"m 181 984 l 465 984 l 225 784 l 41 784 l 181 984 "},"ì":{"x_min":-101.78125,"x_max":321.828125,"ha":361,"o":"m 76 675 l 284 675 l 284 0 l 76 0 l 76 675 m 321 784 l 138 784 l -101 984 l 181 984 l 321 784 "},"±":{"x_min":82,"x_max":843,"ha":925,"o":"m 82 215 l 843 215 l 843 40 l 82 40 l 82 215 m 82 624 l 375 624 l 375 802 l 550 802 l 550 624 l 843 624 l 843 449 l 550 449 l 550 271 l 375 271 l 375 449 l 82 449 l 82 624 "},"Ú":{"x_min":100,"x_max":929,"ha":1029,"o":"m 929 379 q 902 218 929 291 q 824 90 876 144 q 694 5 772 36 q 515 -25 616 -25 q 334 5 412 -25 q 204 90 256 36 q 126 218 152 144 q 100 379 100 291 l 100 984 l 317 984 l 317 387 q 331 302 317 341 q 372 235 346 263 q 435 190 398 206 q 515 175 472 175 q 594 190 558 175 q 656 235 630 206 q 697 302 682 263 q 712 387 712 341 l 712 984 l 929 984 l 929 379 m 516 1255 l 799 1255 l 559 1055 l 376 1055 l 516 1255 "},"|":{"x_min":67,"x_max":242,"ha":309,"o":"m 67 1051 l 242 1051 l 242 -25 l 67 -25 l 67 1051 "},"§":{"x_min":52.78125,"x_max":758,"ha":822,"o":"m 519 266 q 566 351 566 294 q 557 386 566 371 q 536 414 549 402 q 507 435 523 426 q 476 451 491 444 l 315 528 q 267 446 267 500 q 277 403 267 421 q 303 373 287 386 q 338 350 319 359 q 377 332 358 340 l 519 266 m 542 757 q 492 819 527 797 q 415 842 456 842 q 353 823 381 842 q 325 768 325 805 q 356 710 325 733 q 437 665 388 686 q 541 623 486 644 q 645 571 596 601 q 726 496 694 540 q 758 390 758 453 q 724 283 758 332 q 641 209 691 234 q 697 136 677 180 q 718 44 718 93 q 685 -72 718 -23 q 602 -151 652 -121 q 492 -196 552 -182 q 376 -210 431 -210 q 276 -201 324 -210 q 186 -172 227 -193 q 110 -118 144 -151 q 52 -34 76 -84 l 230 52 q 252 9 236 27 q 289 -20 268 -8 q 334 -37 309 -31 q 381 -43 358 -43 q 418 -39 398 -43 q 454 -27 437 -36 q 481 -5 470 -19 q 493 29 493 8 q 461 84 493 62 q 384 125 430 105 q 284 166 338 145 q 183 218 229 187 q 106 295 137 250 q 75 407 75 340 q 106 527 75 478 q 195 612 137 576 q 131 681 155 640 q 108 772 108 722 q 135 878 108 833 q 205 951 162 922 q 301 995 248 981 q 406 1009 353 1009 q 497 1002 451 1009 q 585 977 542 995 q 662 929 627 958 q 718 857 697 900 l 542 757 "},"Ý":{"x_min":-27.453125,"x_max":928.453125,"ha":901,"o":"m 342 419 l -27 984 l 242 984 l 450 615 l 671 984 l 928 984 l 559 419 l 559 0 l 342 0 l 342 419 m 451 1292 l 735 1292 l 495 1092 l 311 1092 l 451 1292 "},"b":{"x_min":93,"x_max":826.328125,"ha":875,"o":"m 284 337 q 328 213 284 260 q 451 166 372 166 q 574 213 530 166 q 618 337 618 260 q 574 460 618 413 q 451 508 530 508 q 328 460 372 508 q 284 337 284 413 m 93 1050 l 301 1050 l 301 603 l 304 603 q 396 671 340 651 q 518 691 452 691 q 647 661 590 691 q 743 581 704 631 q 804 467 783 531 q 826 331 826 402 q 802 191 826 255 q 735 80 779 127 q 630 8 691 34 q 494 -17 569 -17 q 426 -7 458 -17 q 367 17 394 2 q 320 51 340 33 q 287 89 299 70 l 284 89 l 284 -1 l 93 -1 l 93 1050 "},"q":{"x_min":49,"x_max":782.328125,"ha":875,"o":"m 590 337 q 546 461 590 413 q 424 508 503 508 q 301 461 344 508 q 257 337 257 413 q 301 213 257 261 q 424 166 344 166 q 546 213 503 166 q 590 337 590 261 m 782 -317 l 574 -317 l 574 72 l 571 72 q 478 3 535 23 q 357 -17 422 -17 q 228 12 285 -17 q 131 92 171 42 q 70 207 92 142 q 49 343 49 272 q 72 483 49 419 q 139 593 96 547 q 244 666 183 640 q 380 692 305 692 q 448 682 415 692 q 508 657 480 672 q 555 622 535 641 q 587 586 575 604 l 590 586 l 590 675 l 782 675 l 782 -317 "},"Ö":{"x_min":47,"x_max":1108,"ha":1155,"o":"m 272 492 q 293 364 272 422 q 355 264 315 307 q 451 198 395 222 q 577 175 508 175 q 703 198 646 175 q 799 264 759 222 q 861 364 839 307 q 883 492 883 422 q 861 618 883 560 q 799 719 839 676 q 703 785 759 761 q 577 809 646 809 q 451 785 508 809 q 355 719 395 761 q 293 618 315 676 q 272 492 272 560 m 47 492 q 86 706 47 610 q 196 869 126 801 q 365 972 267 936 q 577 1009 462 1009 q 789 972 692 1009 q 958 869 887 936 q 1068 706 1028 801 q 1108 492 1108 610 q 1068 277 1108 373 q 958 114 1028 182 q 789 11 887 47 q 577 -25 692 -25 q 365 11 462 -25 q 196 114 267 47 q 86 277 126 182 q 47 492 47 373 m 721 1047 q 675 1056 696 1047 q 639 1083 654 1066 q 615 1121 624 1099 q 606 1166 606 1142 q 615 1209 606 1188 q 639 1245 624 1230 q 674 1270 654 1260 q 718 1280 694 1280 q 802 1248 766 1280 q 839 1166 839 1216 q 805 1081 839 1116 q 721 1047 772 1047 m 432 1047 q 386 1056 407 1047 q 350 1083 365 1066 q 326 1121 335 1099 q 317 1166 317 1142 q 326 1209 317 1188 q 350 1245 335 1230 q 385 1270 365 1260 q 429 1280 405 1280 q 513 1248 477 1280 q 550 1166 550 1216 q 516 1081 550 1116 q 432 1047 483 1047 "},"z":{"x_min":47,"x_max":647,"ha":694,"o":"m 47 208 l 397 508 l 56 508 l 56 675 l 639 675 l 639 474 l 272 167 l 647 167 l 647 0 l 47 0 l 47 208 "},"™":{"x_min":56,"x_max":1334,"ha":1390,"o":"m 659 983 l 860 983 l 996 611 l 1132 983 l 1334 983 l 1334 411 l 1184 411 l 1184 783 l 1181 783 l 1045 411 l 947 411 l 811 783 l 809 783 l 809 411 l 659 411 l 659 983 m 221 850 l 56 850 l 56 983 l 537 983 l 537 850 l 371 850 l 371 411 l 221 411 l 221 850 "},"ã":{"x_min":40,"x_max":689,"ha":746,"o":"m 445 293 q 386 293 422 293 q 318 283 351 293 q 262 253 285 273 q 240 199 240 234 q 271 143 240 161 q 338 125 303 125 q 397 133 369 125 q 448 156 426 141 q 484 194 470 171 q 497 249 497 217 l 497 293 l 445 293 m 497 84 l 494 84 q 402 6 459 30 q 280 -17 344 -17 q 189 -3 233 -17 q 112 36 145 9 q 59 101 78 62 q 40 192 40 140 q 61 291 40 250 q 119 358 83 331 q 203 399 156 384 q 301 421 251 414 q 403 428 352 428 q 497 428 454 428 q 457 517 497 484 q 363 550 417 550 q 269 528 312 550 q 194 469 227 507 l 83 583 q 219 664 141 637 q 380 692 297 692 q 531 669 472 692 q 625 601 590 646 q 675 492 661 557 q 689 343 689 427 l 689 0 l 497 0 l 497 84 m 101 792 q 120 861 106 826 q 156 922 134 895 q 208 966 177 949 q 277 983 238 983 q 340 974 312 983 q 398 954 367 966 q 436 940 417 947 q 476 934 455 934 q 513 948 499 934 q 537 984 527 962 l 645 984 q 626 908 638 943 q 592 848 613 874 q 539 807 570 822 q 465 792 508 792 q 407 800 434 792 q 356 821 380 809 q 311 841 333 832 q 269 850 290 850 q 231 830 245 850 q 210 792 217 811 l 101 792 "},"æ":{"x_min":40,"x_max":1143,"ha":1183,"o":"m 934 414 q 897 504 934 466 q 804 542 861 542 q 743 530 770 542 q 698 502 717 519 q 669 462 679 484 q 659 414 659 439 l 934 414 m 240 193 q 250 156 240 169 q 276 136 260 143 q 310 127 291 129 q 346 125 330 125 q 452 164 421 125 q 484 270 484 204 l 459 270 q 398 270 435 270 q 325 263 360 270 q 264 239 289 256 q 240 193 240 222 m 83 583 q 219 664 141 637 q 380 692 296 692 q 497 672 439 692 q 599 609 555 653 q 700 671 641 650 q 825 692 759 692 q 957 666 898 692 q 1057 595 1016 641 q 1120 483 1098 548 q 1143 337 1143 418 l 1143 272 l 659 272 q 713 176 671 212 q 815 141 754 141 q 902 163 867 141 q 964 222 938 186 l 1110 116 q 984 17 1060 52 q 826 -17 908 -17 q 671 6 742 -17 q 556 92 600 30 q 440 7 512 31 q 280 -17 369 -17 q 189 -3 233 -17 q 112 35 145 9 q 59 101 78 62 q 40 191 40 140 q 60 283 40 246 q 115 346 81 321 q 193 384 149 371 q 283 405 237 398 q 375 412 330 412 q 459 412 421 412 l 484 412 q 452 511 484 473 q 363 550 420 550 q 269 528 312 550 q 194 469 227 507 l 83 583 "},"®":{"x_min":39,"x_max":1072,"ha":1111,"o":"m 181 492 q 210 339 181 411 q 290 215 239 268 q 409 131 341 162 q 555 100 477 100 q 701 131 633 100 q 820 215 769 162 q 900 339 871 268 q 930 492 930 411 q 900 644 930 572 q 820 768 871 715 q 701 852 769 821 q 555 884 633 884 q 409 852 477 884 q 290 768 341 821 q 210 644 239 715 q 181 492 181 572 m 39 492 q 79 692 39 599 q 191 856 120 786 q 354 968 261 927 q 555 1009 448 1009 q 756 968 662 1009 q 919 856 849 927 q 1031 692 990 786 q 1072 492 1072 599 q 1031 291 1072 384 q 919 127 990 197 q 756 16 849 57 q 555 -25 662 -25 q 354 16 448 -25 q 191 127 261 57 q 79 291 120 197 q 39 492 39 384 m 497 543 l 554 543 q 581 544 566 543 q 608 551 595 545 q 628 568 620 556 q 637 601 637 580 q 628 634 637 622 q 608 651 620 646 q 581 658 595 657 q 554 660 566 660 l 497 660 l 497 543 m 357 766 l 548 766 q 609 766 570 766 q 685 749 648 766 q 751 696 723 732 q 779 594 779 660 q 767 525 779 552 q 739 480 756 498 q 698 453 721 462 q 652 441 675 444 l 791 226 l 645 226 l 522 435 l 499 435 l 499 226 l 357 226 l 357 766 "},"É":{"x_min":108,"x_max":801.390625,"ha":875,"o":"m 108 984 l 776 984 l 776 784 l 325 784 l 325 600 l 751 600 l 751 400 l 325 400 l 325 200 l 801 200 l 801 0 l 108 0 l 108 984 m 438 1255 l 722 1255 l 481 1055 l 298 1055 l 438 1255 "},"~":{"x_min":141.671875,"x_max":783.328125,"ha":925,"o":"m 783 405 q 756 361 772 383 q 719 323 740 340 q 671 296 698 306 q 609 286 644 286 q 534 299 573 286 q 455 330 495 312 q 379 364 416 347 q 313 381 341 381 q 275 371 293 381 q 243 349 258 362 q 216 319 229 336 q 191 286 204 302 l 141 436 q 168 480 152 458 q 205 518 184 501 q 253 545 226 535 q 315 556 280 556 q 390 542 351 556 q 469 511 429 529 q 545 477 508 494 q 611 461 583 461 q 649 470 631 461 q 681 492 666 479 q 708 522 695 505 q 733 556 720 539 l 783 405 "},"³":{"x_min":24,"x_max":512,"ha":536,"o":"m 199 767 l 246 767 q 284 769 265 767 q 317 778 303 771 q 340 797 332 785 q 349 829 349 809 q 328 863 349 851 q 271 875 307 875 q 213 859 237 875 q 182 814 189 843 l 29 841 q 119 965 53 930 q 271 1000 185 1000 q 357 990 315 1000 q 430 961 399 980 q 480 911 461 941 q 499 841 499 882 q 469 757 499 793 q 384 712 440 722 l 384 710 q 478 662 444 703 q 512 571 512 622 q 492 493 512 526 q 439 437 473 459 q 361 404 406 415 q 267 393 317 393 q 110 430 175 393 q 24 557 44 468 l 175 587 q 204 536 182 555 q 267 518 226 518 q 334 533 307 518 q 362 585 362 549 q 350 622 362 609 q 321 642 339 636 q 280 649 303 649 q 233 649 257 649 l 199 649 l 199 767 "},"¡":{"x_min":181,"x_max":437,"ha":618,"o":"m 437 555 q 427 505 437 529 q 400 464 417 482 q 359 437 382 447 q 308 428 335 428 q 258 437 282 428 q 217 464 235 447 q 190 505 200 482 q 181 555 181 529 q 190 606 181 582 q 217 647 200 629 q 258 674 235 664 q 308 684 282 684 q 359 674 335 684 q 400 647 382 664 q 427 606 417 629 q 437 555 437 582 m 204 351 l 413 351 l 413 -308 l 204 -308 l 204 351 "},"[":{"x_min":92,"x_max":384,"ha":412,"o":"m 384 892 l 259 892 l 259 -92 l 384 -92 l 384 -217 l 92 -217 l 92 1017 l 384 1017 l 384 892 "},"L":{"x_min":108,"x_max":726.390625,"ha":746,"o":"m 108 983 l 325 983 l 325 200 l 726 200 l 726 0 l 108 0 l 108 983 "}," ":{"x_min":0,"x_max":0,"ha":411},"%":{"x_min":7,"x_max":1253,"ha":1260,"o":"m 853 1027 l 970 962 l 396 -44 l 291 15 l 853 1027 m 412 725 q 373 819 412 780 q 280 858 335 858 q 187 819 225 858 q 149 725 149 780 q 187 630 149 669 q 280 592 225 592 q 373 630 335 592 q 412 725 412 669 m 7 725 q 28 831 7 781 q 86 919 50 881 q 173 978 123 956 q 280 1000 223 1000 q 387 978 337 1000 q 474 919 437 956 q 532 831 510 881 q 554 725 554 781 q 532 618 554 668 q 474 530 510 568 q 387 471 437 493 q 280 450 337 450 q 173 471 223 450 q 86 530 123 493 q 28 618 50 568 q 7 725 7 668 m 1111 259 q 1072 354 1111 315 q 979 393 1034 393 q 885 354 923 393 q 847 259 847 315 q 885 163 847 202 q 979 125 923 125 q 1072 163 1034 125 q 1111 259 1111 202 m 705 259 q 726 366 705 316 q 784 454 748 416 q 871 513 821 491 q 979 535 921 535 q 1086 513 1036 535 q 1173 454 1136 491 q 1231 366 1209 416 q 1253 259 1253 316 q 1231 151 1253 202 q 1173 63 1209 101 q 1086 4 1136 26 q 979 -17 1036 -17 q 871 4 921 -17 q 784 63 821 26 q 726 151 748 101 q 705 259 705 202 "},"P":{"x_min":100,"x_max":839,"ha":875,"o":"m 317 567 l 461 567 q 517 572 490 567 q 566 591 544 578 q 600 627 587 604 q 614 685 614 650 q 596 746 614 723 q 552 781 579 769 q 491 797 525 794 q 428 801 458 801 l 317 801 l 317 567 m 100 984 l 465 984 q 609 970 541 984 q 728 922 677 956 q 809 830 779 888 q 839 685 839 773 q 811 541 839 599 q 734 447 783 482 q 619 398 686 413 q 475 384 552 384 l 317 384 l 317 0 l 100 0 l 100 984 "},"À":{"x_min":-1.390625,"x_max":1030.5625,"ha":1029,"o":"m 506 697 l 387 391 l 627 391 l 506 697 m 423 983 l 602 983 l 1030 0 l 786 0 l 701 208 l 319 208 l 237 0 l -1 0 l 423 983 m 656 1054 l 473 1054 l 233 1254 l 516 1254 l 656 1054 "},"_":{"x_min":0,"x_max":694,"ha":694,"o":"m 0 -174 l 0 -105 l 694 -105 l 694 -174 l 0 -174 "},"ñ":{"x_min":74,"x_max":724,"ha":798,"o":"m 74 675 l 274 675 l 274 584 l 276 584 q 304 622 286 603 q 347 657 322 642 q 404 682 372 672 q 474 692 436 692 q 601 667 553 692 q 677 600 650 643 q 714 498 704 557 q 724 372 724 440 l 724 0 l 513 0 l 513 330 q 513 391 513 359 q 502 448 513 422 q 470 491 492 475 q 408 508 448 508 q 342 493 367 508 q 304 455 317 479 q 286 400 290 430 q 282 336 282 369 l 282 0 l 74 0 l 74 675 m 126 792 q 146 861 132 826 q 181 923 160 896 q 233 967 203 950 q 303 984 264 984 q 365 975 337 984 q 424 954 393 967 q 462 940 443 947 q 501 934 481 934 q 539 948 525 934 q 562 984 553 963 l 671 984 q 651 908 664 943 q 617 848 639 874 q 565 807 596 822 q 490 792 533 792 q 433 801 460 792 q 382 821 406 810 q 337 841 358 832 q 294 851 315 851 q 257 831 271 851 q 236 792 243 811 l 126 792 "},"+":{"x_min":82,"x_max":843,"ha":925,"o":"m 82 508 l 375 508 l 375 801 l 550 801 l 550 508 l 843 508 l 843 333 l 550 333 l 550 40 l 375 40 l 375 333 l 82 333 l 82 508 "},"‚":{"x_min":54.171875,"x_max":356.9375,"ha":411,"o":"m 231 -175 l 54 -175 l 156 217 l 356 217 l 231 -175 "},"½":{"x_min":10.828125,"x_max":1223,"ha":1234,"o":"m 824 1028 l 941 962 l 367 -44 l 262 15 l 824 1028 m 755 123 l 1013 342 q 1052 378 1032 359 q 1073 419 1073 398 q 1048 461 1073 448 q 991 474 1023 474 q 926 452 950 474 q 899 403 902 430 l 760 403 q 827 551 760 503 q 995 599 895 599 q 1086 587 1045 599 q 1158 555 1127 576 q 1206 503 1189 535 q 1223 432 1223 472 q 1217 372 1223 395 q 1200 330 1211 348 q 1174 298 1189 312 q 1138 269 1159 284 l 944 119 l 944 117 l 1223 117 l 1223 0 l 755 0 l 755 123 m 215 842 l 91 737 l 10 829 l 231 992 l 365 992 l 365 401 l 215 401 l 215 842 "},"Æ":{"x_min":-20.5,"x_max":1367,"ha":1441,"o":"m 742 784 l 718 784 l 469 392 l 742 392 l 742 784 m 742 208 l 376 208 l 244 0 l -20 0 l 603 984 l 1350 984 l 1350 784 l 959 784 l 959 600 l 1317 600 l 1317 400 l 959 400 l 959 200 l 1367 200 l 1367 0 l 742 0 l 742 208 "},"":{"x_min":49,"x_max":827,"ha":876,"o":"m 49 200 l 547 792 l 67 792 l 67 984 l 810 984 l 810 792 l 321 200 l 827 200 l 827 0 l 49 0 l 49 200 m 347 1292 l 435 1183 l 521 1292 l 708 1292 l 543 1092 l 316 1092 l 155 1292 l 347 1292 "},"Ë":{"x_min":108,"x_max":801.390625,"ha":875,"o":"m 108 984 l 776 984 l 776 784 l 325 784 l 325 600 l 751 600 l 751 400 l 325 400 l 325 200 l 801 200 l 801 0 l 108 0 l 108 984 m 580 1047 q 534 1056 555 1047 q 498 1083 513 1066 q 474 1121 483 1099 q 465 1166 465 1142 q 474 1209 465 1188 q 498 1245 483 1230 q 533 1270 513 1260 q 577 1280 553 1280 q 661 1248 625 1280 q 698 1166 698 1216 q 664 1081 698 1116 q 580 1047 631 1047 m 291 1047 q 245 1056 266 1047 q 209 1083 224 1066 q 185 1121 194 1099 q 176 1166 176 1142 q 185 1209 176 1188 q 209 1245 194 1230 q 244 1270 224 1260 q 288 1280 264 1280 q 372 1248 336 1280 q 409 1166 409 1216 q 375 1081 409 1116 q 291 1047 342 1047 "},"'":{"x_min":118,"x_max":293,"ha":411,"o":"m 118 984 l 293 984 l 293 592 l 118 592 l 118 984 "},"Š":{"x_min":26.0625,"x_max":736,"ha":797,"o":"m 585 743 q 514 793 559 777 q 428 809 469 809 q 380 803 405 809 q 333 786 355 797 q 296 754 310 774 q 283 707 283 735 q 316 639 283 663 q 400 599 349 615 q 509 565 450 582 q 618 518 567 549 q 702 436 669 487 q 736 298 736 385 q 705 155 736 216 q 622 54 674 94 q 501 -5 570 13 q 356 -25 433 -25 q 178 4 260 -25 q 26 98 96 33 l 180 268 q 264 199 213 223 q 369 175 314 175 q 422 181 395 175 q 471 200 449 187 q 505 232 492 212 q 519 277 519 251 q 484 348 519 322 q 399 391 450 373 q 288 428 348 409 q 177 476 228 446 q 92 557 126 507 q 58 689 58 607 q 89 828 58 768 q 172 928 120 888 q 292 988 224 968 q 433 1009 360 1009 q 594 985 516 1009 q 734 906 672 961 l 585 743 m 307 1292 l 395 1183 l 481 1292 l 669 1292 l 503 1092 l 277 1092 l 116 1292 l 307 1292 "},"ª":{"x_min":32,"x_max":453,"ha":485,"o":"m 328 775 l 303 775 q 265 775 287 775 q 223 769 243 775 q 188 751 203 763 q 174 719 174 739 q 192 688 174 696 q 233 681 211 681 q 300 703 273 681 q 328 748 328 725 l 328 775 m 320 650 l 317 650 q 265 604 301 618 q 187 590 229 590 q 128 597 157 590 q 78 621 100 605 q 44 661 57 637 q 32 715 32 684 q 62 798 32 768 q 137 842 93 827 q 230 857 180 857 q 320 857 281 857 q 299 904 320 883 q 242 925 278 925 q 181 911 208 925 q 132 875 154 897 l 59 942 q 148 991 97 974 q 252 1008 200 1008 q 350 994 312 1008 q 412 954 389 980 q 443 890 434 928 q 453 804 453 852 l 453 599 l 320 599 l 320 650 "},"Œ":{"x_min":47,"x_max":1340,"ha":1414,"o":"m 707 784 l 636 784 q 488 765 555 784 q 374 711 422 747 q 299 619 326 674 q 272 492 272 564 q 299 364 272 418 q 374 273 326 309 q 488 218 422 236 q 636 200 555 200 l 707 200 l 707 784 m 924 600 l 1290 600 l 1290 400 l 924 400 l 924 200 l 1340 200 l 1340 0 l 602 0 q 404 28 503 0 q 226 116 305 56 q 97 269 147 176 q 47 492 47 362 q 89 703 47 611 q 205 857 131 795 q 378 952 278 920 q 591 984 477 984 l 1323 984 l 1323 784 l 924 784 l 924 600 "},"˛":{"x_min":-12,"x_max":285.21875,"ha":362,"o":"m 285 -274 q 214 -317 250 -301 q 133 -333 178 -333 q 78 -324 104 -333 q 31 -299 51 -316 q 0 -258 11 -282 q -12 -203 -12 -234 q 1 -141 -12 -173 q 38 -80 15 -110 q 85 -25 60 -50 q 133 17 110 0 l 228 17 q 191 -19 211 1 q 153 -66 171 -41 q 124 -119 136 -92 q 113 -169 113 -145 q 129 -212 113 -192 q 171 -233 146 -233 q 210 -223 190 -233 q 246 -201 231 -213 l 285 -274 "},"ð":{"x_min":49,"x_max":799,"ha":848,"o":"m 257 337 q 301 214 257 261 q 424 167 344 167 q 546 214 503 167 q 590 337 590 261 q 546 461 590 414 q 424 508 503 508 q 301 461 344 508 q 257 337 257 414 m 730 986 l 560 915 q 634 832 593 880 q 712 719 675 783 q 774 573 749 654 q 799 394 799 493 q 774 223 799 300 q 702 93 750 147 q 585 11 654 40 q 424 -18 515 -18 q 277 7 346 -18 q 158 78 208 32 q 78 190 107 125 q 49 336 49 256 q 78 483 49 417 q 157 595 108 548 q 267 666 205 641 q 393 692 329 692 q 465 685 429 692 q 529 655 501 679 l 532 658 q 499 702 518 678 q 458 751 479 726 q 416 799 437 776 q 378 837 394 822 l 230 775 l 130 869 l 280 933 q 262 951 273 940 q 238 973 251 961 q 211 996 225 985 q 185 1015 197 1007 l 354 1113 q 413 1064 386 1089 q 465 1012 440 1039 l 624 1079 l 730 986 "},"T":{"x_min":10,"x_max":788,"ha":798,"o":"m 290 792 l 10 792 l 10 984 l 788 984 l 788 792 l 507 792 l 507 0 l 290 0 l 290 792 "},"š":{"x_min":33.328125,"x_max":610,"ha":643,"o":"m 455 476 q 334 533 410 533 q 283 520 308 533 q 258 477 258 507 q 284 440 258 452 q 349 419 309 428 q 434 400 389 410 q 519 367 479 389 q 584 307 558 345 q 610 205 610 269 q 581 97 610 139 q 508 29 553 55 q 408 -6 464 3 q 298 -17 352 -17 q 155 3 227 -17 q 33 74 83 23 l 159 214 q 224 159 188 178 q 307 141 259 141 q 372 151 343 141 q 401 189 401 161 q 375 229 401 216 q 310 251 350 242 q 225 270 270 260 q 140 302 180 281 q 75 361 101 323 q 50 463 50 399 q 74 566 50 522 q 138 636 98 609 q 229 677 177 664 q 333 691 280 691 q 468 671 400 691 q 583 602 536 652 l 455 476 m 231 983 l 319 874 l 405 983 l 593 983 l 428 783 l 201 783 l 40 983 l 231 983 "},"Þ":{"x_min":100,"x_max":839,"ha":875,"o":"m 317 392 l 461 392 q 517 397 490 392 q 566 416 544 403 q 600 452 587 429 q 614 510 614 475 q 596 570 614 547 q 552 606 579 593 q 491 622 525 618 q 428 625 458 625 l 317 625 l 317 392 m 100 984 l 317 984 l 317 809 l 465 809 q 609 795 541 809 q 728 747 677 781 q 809 655 779 713 q 839 510 839 597 q 811 365 839 424 q 734 272 783 307 q 619 223 686 237 q 475 208 552 208 l 317 208 l 317 0 l 100 0 l 100 984 "},"j":{"x_min":-57,"x_max":302,"ha":362,"o":"m 60 888 q 95 973 60 938 q 181 1009 130 1009 q 266 973 231 1009 q 302 888 302 938 q 266 802 302 837 q 181 767 231 767 q 95 802 130 767 q 60 888 60 837 m 285 -49 q 272 -166 285 -114 q 231 -255 260 -219 q 155 -312 202 -292 q 38 -333 108 -333 q -9 -330 15 -333 q -57 -321 -33 -328 l -57 -137 q 3 -149 -26 -149 q 45 -135 29 -149 q 67 -100 60 -121 q 75 -56 75 -80 q 75 -13 75 -32 l 75 675 l 285 675 l 285 -49 "},"1":{"x_min":84.71875,"x_max":600,"ha":822,"o":"m 400 750 l 202 576 l 84 712 l 405 984 l 600 984 l 600 0 l 400 0 l 400 750 "},"›":{"x_min":38.890625,"x_max":386.109375,"ha":411,"o":"m 200 346 l 38 586 l 165 671 l 386 346 l 165 20 l 38 105 l 200 346 "},"ı":{"x_min":76,"x_max":284.328125,"ha":361,"o":"m 76 675 l 284 675 l 284 0 l 76 0 l 76 675 "},"ä":{"x_min":40,"x_max":689,"ha":746,"o":"m 445 293 q 386 293 422 293 q 318 283 351 293 q 262 253 285 273 q 240 199 240 234 q 271 143 240 161 q 338 125 303 125 q 397 133 369 125 q 448 156 426 141 q 484 194 470 171 q 497 249 497 217 l 497 293 l 445 293 m 497 84 l 494 84 q 401 6 459 30 q 280 -17 344 -17 q 189 -3 233 -17 q 112 36 145 9 q 59 101 78 62 q 40 192 40 140 q 61 291 40 250 q 119 358 83 331 q 203 399 156 384 q 301 421 251 414 q 403 428 352 428 q 497 428 453 428 q 457 517 497 484 q 363 550 417 550 q 269 528 312 550 q 194 469 227 507 l 82 583 q 219 664 141 637 q 380 692 297 692 q 531 669 472 692 q 625 601 590 646 q 675 492 661 557 q 689 343 689 427 l 689 0 l 497 0 l 497 84 m 516 775 q 470 784 491 775 q 434 811 449 794 q 410 849 419 827 q 401 894 401 870 q 410 937 401 916 q 434 973 419 958 q 469 998 449 988 q 513 1008 489 1008 q 597 976 561 1008 q 634 894 634 944 q 600 809 634 844 q 516 775 567 775 m 227 775 q 181 784 202 775 q 145 811 160 794 q 121 849 130 827 q 112 894 112 870 q 121 937 112 916 q 145 973 130 958 q 180 998 160 988 q 224 1008 200 1008 q 308 976 272 1008 q 345 894 345 944 q 311 809 345 844 q 227 775 278 775 "},"<":{"x_min":111,"x_max":814,"ha":925,"o":"m 814 594 l 374 422 l 374 419 l 814 247 l 814 58 l 111 333 l 111 508 l 814 783 l 814 594 "},"£":{"x_min":67,"x_max":835,"ha":823,"o":"m 67 158 l 200 158 l 200 433 l 67 433 l 67 575 l 200 575 l 200 673 q 222 794 200 736 q 288 898 244 853 q 395 972 332 944 q 544 1000 459 1000 q 700 979 623 1000 q 835 905 776 958 l 695 757 q 632 801 668 785 q 569 817 597 817 q 492 801 523 817 q 442 762 461 786 q 415 706 423 737 q 408 643 408 675 l 408 575 l 625 575 l 625 433 l 408 433 l 408 158 l 760 158 l 760 0 l 67 0 l 67 158 "},"¹":{"x_min":49.828125,"x_max":404,"ha":535,"o":"m 254 842 l 130 738 l 49 830 l 270 993 l 404 993 l 404 402 l 254 402 l 254 842 "},"t":{"x_min":8,"x_max":533,"ha":565,"o":"m 533 509 l 350 509 l 350 284 q 352 233 350 256 q 365 193 355 210 q 395 168 374 177 q 448 159 415 159 q 492 162 465 159 q 533 178 519 165 l 533 4 q 460 -12 498 -7 q 387 -16 423 -16 q 290 -5 334 -16 q 212 30 245 6 q 160 93 179 54 q 141 188 141 132 l 141 509 l 8 509 l 8 676 l 141 676 l 141 876 l 350 876 l 350 676 l 533 676 l 533 509 "},"¬":{"x_min":81.875,"x_max":843,"ha":925,"o":"m 668 467 l 81 467 l 81 642 l 843 642 l 843 197 l 668 197 l 668 467 "},"ù":{"x_min":74,"x_max":724,"ha":798,"o":"m 724 0 l 524 0 l 524 91 l 521 91 q 492 52 510 71 q 450 17 475 32 q 393 -7 425 2 q 324 -17 361 -17 q 195 7 244 -17 q 119 74 146 31 q 83 176 92 117 q 74 302 74 234 l 74 675 l 284 675 l 284 344 q 284 283 284 315 q 294 226 284 252 q 326 183 305 199 q 389 166 348 166 q 455 181 430 166 q 493 219 480 195 q 511 274 507 244 q 515 338 515 305 l 515 675 l 724 675 l 724 0 m 540 783 l 357 783 l 117 983 l 400 983 l 540 783 "},"W":{"x_min":-2.78125,"x_max":1391.671875,"ha":1389,"o":"m -2 984 l 233 984 l 390 353 l 393 353 l 598 984 l 800 984 l 1004 336 l 1006 336 l 1172 984 l 1391 984 l 1104 0 l 911 0 l 694 681 l 691 681 l 475 0 l 288 0 l -2 984 "},"ï":{"x_min":-80,"x_max":442,"ha":362,"o":"m 77 675 l 285 675 l 285 0 l 77 0 l 77 675 m 324 776 q 278 785 299 776 q 242 812 257 795 q 218 850 227 828 q 209 895 209 871 q 218 938 209 917 q 242 974 227 959 q 277 999 257 989 q 321 1009 297 1009 q 405 977 369 1009 q 442 895 442 945 q 408 810 442 845 q 324 776 375 776 m 35 776 q -10 785 10 776 q -46 812 -31 795 q -70 850 -61 828 q -80 895 -80 871 q -70 938 -80 917 q -46 974 -61 959 q -11 999 -31 989 q 32 1009 8 1009 q 116 977 80 1009 q 153 895 153 945 q 119 810 153 845 q 35 776 86 776 "},">":{"x_min":111,"x_max":814,"ha":925,"o":"m 111 247 l 551 419 l 551 422 l 111 594 l 111 783 l 814 508 l 814 333 l 111 58 l 111 247 "},"v":{"x_min":2.78125,"x_max":769.453125,"ha":772,"o":"m 2 675 l 227 675 l 398 217 l 401 217 l 559 675 l 769 675 l 502 0 l 281 0 l 2 675 "},"û":{"x_min":74,"x_max":724,"ha":798,"o":"m 724 0 l 524 0 l 524 91 l 521 91 q 492 52 510 71 q 450 17 475 32 q 393 -7 425 2 q 324 -17 361 -17 q 195 7 244 -17 q 119 74 146 31 q 83 176 92 117 q 74 302 74 234 l 74 675 l 284 675 l 284 344 q 284 283 284 315 q 294 226 284 252 q 326 183 305 199 q 389 166 348 166 q 455 181 430 166 q 493 219 480 195 q 511 274 507 244 q 515 338 515 305 l 515 675 l 724 675 l 724 0 m 483 783 l 396 891 l 310 783 l 122 783 l 288 983 l 514 983 l 675 783 l 483 783 "},"Ò":{"x_min":47,"x_max":1108,"ha":1155,"o":"m 272 492 q 293 364 272 422 q 355 264 315 307 q 451 198 395 222 q 577 175 508 175 q 703 198 646 175 q 799 264 759 222 q 861 364 839 307 q 883 492 883 422 q 861 618 883 560 q 799 719 839 676 q 703 785 759 761 q 577 809 646 809 q 451 785 508 809 q 355 719 395 761 q 293 618 315 676 q 272 492 272 560 m 47 492 q 86 706 47 610 q 196 869 126 801 q 365 972 267 936 q 577 1009 462 1009 q 789 972 692 1009 q 958 869 887 936 q 1068 706 1028 801 q 1108 492 1108 610 q 1068 277 1108 373 q 958 114 1028 182 q 789 11 887 47 q 577 -25 692 -25 q 365 11 462 -25 q 196 114 267 47 q 86 277 126 182 q 47 492 47 373 m 719 1055 l 535 1055 l 295 1255 l 578 1255 l 719 1055 "},"&":{"x_min":58,"x_max":1045.4375,"ha":1054,"o":"m 395 419 q 354 393 374 407 q 318 364 334 380 q 292 327 302 348 q 283 279 283 307 q 294 229 283 251 q 323 191 305 207 q 365 167 341 176 q 414 158 389 158 q 498 179 463 158 q 568 230 534 200 l 395 419 m 461 842 q 394 816 421 842 q 366 750 366 791 q 374 714 366 732 q 394 681 382 697 q 421 651 406 665 q 448 626 435 637 q 484 649 464 636 q 520 678 503 662 q 547 713 536 694 q 559 753 559 732 q 530 819 559 796 q 461 842 502 842 m 826 232 l 1045 0 l 777 0 l 695 93 q 564 2 634 30 q 406 -25 493 -25 q 277 -6 339 -25 q 165 47 214 11 q 87 140 116 84 q 58 269 58 195 q 73 359 58 316 q 118 436 89 401 q 184 496 146 470 q 266 537 221 522 q 222 587 242 563 q 187 637 202 611 q 165 693 173 664 q 158 758 158 722 q 183 872 158 825 q 252 950 209 919 q 351 995 295 981 q 464 1009 406 1009 q 573 994 521 1009 q 664 949 624 979 q 727 874 703 920 q 751 767 751 829 q 736 684 751 722 q 696 614 721 647 q 638 556 671 582 q 568 511 606 530 l 695 376 l 791 507 l 1032 507 l 826 232 "},"":{"x_min":14.171875,"x_max":802.953125,"ha":822,"o":"m 802 104 q 676 16 757 49 q 502 -17 596 -17 q 253 66 347 -17 q 126 308 158 150 l 14 308 l 53 433 l 111 433 q 110 458 110 445 q 110 484 110 470 q 110 519 110 502 q 112 553 110 536 l 18 553 l 61 681 l 133 681 q 284 918 175 837 q 559 1000 393 1000 q 614 997 583 1000 q 677 988 646 994 q 734 975 708 983 q 775 959 761 968 l 711 779 q 649 803 690 793 q 559 814 608 814 q 436 782 489 814 q 352 681 383 751 l 679 681 l 637 553 l 323 553 q 321 522 321 537 q 321 490 321 506 q 321 460 321 474 q 322 433 321 446 l 605 433 l 565 308 l 343 308 q 407 202 364 240 q 522 164 451 164 q 619 186 579 164 q 689 244 659 208 l 802 104 "},"˝":{"x_min":-141.671875,"x_max":648.609375,"ha":361,"o":"m 365 984 l 648 984 l 408 784 l 225 784 l 365 984 m -1 984 l 281 984 l 41 784 l -141 784 l -1 984 "},"Ð":{"x_min":17,"x_max":1007,"ha":1054,"o":"m 100 442 l 17 442 l 17 584 l 100 584 l 100 984 l 425 984 q 649 957 543 984 q 834 872 755 931 q 960 718 913 813 q 1007 489 1007 624 q 961 278 1007 369 q 840 125 916 187 q 663 31 763 63 q 454 0 563 0 l 100 0 l 100 442 m 317 584 l 592 584 l 592 442 l 317 442 l 317 200 l 429 200 q 568 215 504 200 q 680 266 633 230 q 754 359 727 301 q 782 500 782 416 q 754 626 782 572 q 682 714 727 679 q 574 766 636 749 q 444 784 512 784 l 317 784 l 317 584 "},"I":{"x_min":97,"x_max":314,"ha":411,"o":"m 97 984 l 314 984 l 314 0 l 97 0 l 97 984 "},"ˉ":{"x_min":-55,"x_max":417,"ha":362,"o":"m 417 821 l -55 821 l -55 954 l 417 954 l 417 821 "},"G":{"x_min":47,"x_max":990,"ha":1080,"o":"m 990 69 q 790 -2 894 19 q 577 -25 685 -25 q 365 11 462 -25 q 197 114 267 47 q 86 277 126 182 q 47 492 47 373 q 86 706 47 610 q 197 869 126 801 q 365 972 267 936 q 577 1009 462 1009 q 794 980 695 1009 q 969 882 894 952 l 816 715 q 716 785 771 761 q 577 809 660 809 q 451 785 508 809 q 355 719 395 761 q 293 618 315 676 q 272 492 272 560 q 293 364 272 422 q 355 264 315 307 q 451 198 395 222 q 577 175 508 175 q 699 191 648 175 q 781 223 751 207 l 781 384 l 605 384 l 605 584 l 990 584 l 990 69 "},"`":{"x_min":-101.390625,"x_max":322.21875,"ha":361,"o":"m 322 784 l 138 784 l -101 984 l 181 984 l 322 784 "},"·":{"x_min":78,"x_max":334,"ha":412,"o":"m 78 393 q 87 443 78 419 q 114 484 97 466 q 155 511 132 501 q 206 521 179 521 q 256 511 232 521 q 297 484 279 501 q 324 443 314 466 q 334 393 334 419 q 324 342 334 366 q 297 301 314 319 q 256 274 279 284 q 206 265 232 265 q 155 274 179 265 q 114 301 132 284 q 87 342 97 319 q 78 393 78 366 "},"r":{"x_min":74,"x_max":549,"ha":566,"o":"m 74 675 l 282 675 l 282 567 l 285 567 q 364 660 318 629 q 479 691 410 691 q 515 691 497 691 q 549 685 533 691 l 549 495 q 505 505 526 502 q 460 509 483 509 q 365 492 400 509 q 312 445 330 475 q 287 374 293 415 q 282 282 282 332 l 282 0 l 74 0 l 74 675 "},"¿":{"x_min":37,"x_max":697.390625,"ha":772,"o":"m 496 555 q 486 505 496 529 q 459 464 476 482 q 418 437 441 447 q 368 428 394 428 q 317 437 341 428 q 276 464 294 447 q 249 505 259 482 q 240 555 240 529 q 249 606 240 582 q 276 647 259 629 q 317 674 294 664 q 368 684 341 684 q 418 674 394 684 q 459 647 441 664 q 486 606 476 629 q 496 555 496 582 m 472 289 q 460 218 472 248 q 423 164 449 189 q 351 99 384 127 q 295 47 319 71 q 258 1 271 22 q 245 -43 245 -20 q 273 -115 245 -89 q 345 -141 302 -141 q 445 -104 411 -141 q 480 -24 480 -68 l 697 -24 q 588 -254 682 -175 q 349 -333 495 -333 q 228 -315 285 -333 q 129 -263 171 -298 q 62 -177 87 -228 q 37 -59 37 -125 q 45 13 37 -20 q 73 78 53 46 q 126 143 94 110 q 209 214 159 175 q 252 263 241 239 q 263 310 263 286 l 263 350 l 472 350 l 472 289 "},"":{"x_min":47,"x_max":647,"ha":694,"o":"m 47 208 l 397 508 l 56 508 l 56 675 l 639 675 l 639 474 l 272 167 l 647 167 l 647 0 l 47 0 l 47 208 m 257 984 l 344 875 l 430 984 l 618 984 l 453 784 l 226 784 l 65 984 l 257 984 "},"ý":{"x_min":4.171875,"x_max":768.0625,"ha":772,"o":"m 462 -109 q 422 -205 441 -163 q 372 -275 402 -246 q 297 -318 343 -303 q 176 -333 251 -333 q 20 -308 95 -333 l 48 -137 q 145 -158 95 -158 q 202 -150 180 -158 q 239 -128 225 -142 q 263 -92 254 -113 q 284 -43 273 -71 l 300 -5 l 4 675 l 229 675 l 402 230 l 405 230 l 554 676 l 768 676 l 462 -109 m 387 984 l 670 984 l 430 784 l 247 784 l 387 984 "},"x":{"x_min":-11.109375,"x_max":783.328125,"ha":772,"o":"m 255 361 l 30 675 l 276 675 l 395 491 l 511 675 l 743 675 l 523 361 l 783 0 l 537 0 l 390 225 l 231 0 l -11 0 l 255 361 "},"è":{"x_min":53,"x_max":745,"ha":798,"o":"m 536 414 q 499 504 536 466 q 406 542 463 542 q 345 530 372 542 q 300 502 319 519 q 271 462 281 484 q 261 414 261 439 l 536 414 m 712 116 q 586 17 662 52 q 428 -17 510 -17 q 281 8 350 -17 q 162 79 212 33 q 82 191 111 126 q 53 337 53 256 q 82 483 53 418 q 162 595 111 548 q 281 666 212 641 q 428 692 350 692 q 559 666 500 692 q 659 595 618 641 q 722 483 700 548 q 745 337 745 418 l 745 272 l 261 272 q 315 176 273 212 q 417 141 356 141 q 504 163 469 141 q 566 223 540 186 l 712 116 m 540 783 l 356 783 l 116 983 l 399 983 l 540 783 "},"º":{"x_min":32,"x_max":520,"ha":552,"o":"m 174 799 q 200 734 174 761 q 274 708 227 708 q 350 734 322 708 q 378 799 378 761 q 350 865 378 838 q 275 892 322 892 q 201 865 228 892 q 174 799 174 838 m 32 799 q 50 885 32 846 q 102 951 69 924 q 179 993 134 978 q 275 1009 223 1009 q 371 993 326 1009 q 449 951 415 978 q 501 885 482 924 q 520 799 520 846 q 501 711 520 749 q 449 645 482 672 q 371 604 415 618 q 275 591 326 591 q 179 604 223 591 q 102 645 134 618 q 50 711 69 672 q 32 799 32 749 "},"Ø":{"x_min":47,"x_max":1108,"ha":1155,"o":"m 398 227 q 479 188 434 202 q 577 175 524 175 q 703 198 646 175 q 799 264 759 222 q 861 364 839 307 q 883 492 883 422 q 867 601 883 550 q 821 690 851 651 l 398 227 m 748 761 q 577 809 674 809 q 451 785 508 809 q 355 719 395 761 q 293 618 315 676 q 272 492 272 560 q 326 301 272 383 l 748 761 m 176 137 q 80 293 113 204 q 47 491 47 383 q 86 705 47 610 q 196 869 126 801 q 365 972 267 936 q 577 1009 462 1009 q 892 920 759 1009 l 1020 1059 l 1096 990 l 971 854 q 1072 696 1037 788 q 1108 492 1108 604 q 1068 278 1108 373 q 958 114 1028 182 q 789 11 887 47 q 577 -25 692 -25 q 399 0 481 -25 q 253 69 317 25 l 124 -70 l 47 -4 l 176 137 "},"÷":{"x_min":82,"x_max":843,"ha":925,"o":"m 343 683 q 352 730 343 708 q 378 767 362 751 q 415 793 394 783 q 462 803 437 803 q 509 793 487 803 q 546 767 530 783 q 572 730 562 751 q 582 683 582 708 q 572 636 582 658 q 546 599 562 615 q 509 573 530 583 q 462 564 487 564 q 415 573 437 564 q 378 599 394 583 q 352 636 362 615 q 343 683 343 658 m 343 158 q 352 205 343 183 q 378 242 362 226 q 415 268 394 258 q 462 278 437 278 q 509 268 487 278 q 546 242 530 258 q 572 205 562 226 q 582 158 582 183 q 572 111 582 133 q 546 74 562 90 q 509 48 530 58 q 462 39 487 39 q 415 48 437 39 q 378 74 394 58 q 352 111 362 90 q 343 158 343 133 m 82 509 l 843 509 l 843 334 l 82 334 l 82 509 "},"h":{"x_min":74,"x_max":724,"ha":798,"o":"m 282 1051 l 282 584 l 285 584 q 308 622 292 603 q 349 657 325 642 q 404 682 372 672 q 474 692 436 692 q 601 667 553 692 q 677 600 650 643 q 714 498 704 557 q 724 372 724 440 l 724 0 l 513 0 l 513 330 q 513 391 513 359 q 502 448 513 422 q 470 491 492 475 q 408 508 448 508 q 342 493 367 508 q 304 455 317 479 q 286 400 290 430 q 282 336 282 369 l 282 0 l 74 0 l 74 1051 l 282 1051 "},".":{"x_min":78,"x_max":334,"ha":412,"o":"m 78 120 q 87 170 78 146 q 114 211 97 193 q 155 238 132 228 q 206 248 179 248 q 256 238 232 248 q 297 211 279 228 q 324 170 314 193 q 334 120 334 146 q 324 69 334 93 q 297 28 314 46 q 256 1 279 11 q 206 -8 232 -8 q 155 1 179 -8 q 114 28 132 11 q 87 69 97 46 q 78 120 78 93 "},";":{"x_min":23.828125,"x_max":334,"ha":412,"o":"m 78 564 q 87 614 78 590 q 114 655 97 637 q 155 682 132 672 q 206 692 179 692 q 256 682 232 692 q 297 655 279 672 q 324 614 314 637 q 334 564 334 590 q 324 513 334 537 q 297 472 314 490 q 256 445 279 455 q 206 436 232 436 q 155 445 179 436 q 114 472 132 455 q 87 513 97 490 q 78 564 78 537 m 126 225 l 327 225 l 201 -167 l 23 -167 l 126 225 "},"f":{"x_min":8,"x_max":526,"ha":514,"o":"m 145 509 l 8 509 l 8 676 l 145 676 l 145 795 q 155 900 145 851 q 192 987 164 949 q 270 1046 219 1024 q 405 1068 322 1068 q 467 1065 437 1068 q 526 1055 497 1062 l 526 879 q 488 889 503 886 q 453 893 473 893 q 378 871 403 893 q 354 783 354 849 l 354 676 l 508 676 l 508 509 l 354 509 l 354 0 l 145 0 l 145 509 "},"“":{"x_min":61.109375,"x_max":661.109375,"ha":722,"o":"m 483 984 l 661 984 l 558 592 l 358 592 l 483 984 m 186 984 l 363 984 l 261 592 l 61 592 l 186 984 "},"A":{"x_min":-1.390625,"x_max":1030.5625,"ha":1029,"o":"m 506 697 l 387 391 l 627 391 l 506 697 m 423 983 l 602 983 l 1030 0 l 786 0 l 701 208 l 319 208 l 237 0 l -1 0 l 423 983 "},"6":{"x_min":42,"x_max":775.328125,"ha":823,"o":"m 567 329 q 523 439 567 395 q 408 483 479 483 q 294 439 337 483 q 250 329 250 395 q 294 218 250 262 q 408 175 337 175 q 523 218 479 175 q 567 329 567 262 m 398 631 q 432 638 415 635 q 467 641 448 641 q 593 616 536 641 q 690 547 650 591 q 753 445 730 504 q 775 320 775 386 q 746 182 775 243 q 669 76 718 120 q 552 7 619 31 q 408 -17 485 -17 q 264 7 330 -17 q 148 76 197 31 q 70 182 98 120 q 42 320 42 244 q 51 416 42 373 q 77 499 61 460 q 114 573 93 538 q 160 646 136 609 l 375 982 l 629 982 l 398 631 "},"‘":{"x_min":54.171875,"x_max":356.9375,"ha":411,"o":"m 179 984 l 356 984 l 254 592 l 54 592 l 179 984 "},"O":{"x_min":47,"x_max":1108,"ha":1155,"o":"m 272 492 q 293 364 272 422 q 355 264 315 307 q 451 198 395 222 q 577 175 508 175 q 703 198 646 175 q 799 264 759 222 q 861 364 839 307 q 883 492 883 422 q 861 618 883 560 q 799 719 839 676 q 703 785 759 761 q 577 809 646 809 q 451 785 508 809 q 355 719 395 761 q 293 618 315 676 q 272 492 272 560 m 47 492 q 86 706 47 610 q 196 869 126 801 q 365 972 267 936 q 577 1009 462 1009 q 789 972 692 1009 q 958 869 887 936 q 1068 706 1028 801 q 1108 492 1108 610 q 1068 277 1108 373 q 958 114 1028 182 q 789 11 887 47 q 577 -25 692 -25 q 365 11 462 -25 q 196 114 267 47 q 86 277 126 182 q 47 492 47 373 "},"n":{"x_min":74,"x_max":724,"ha":798,"o":"m 74 675 l 274 675 l 274 584 l 276 584 q 304 622 286 603 q 347 657 322 642 q 404 682 372 672 q 474 692 436 692 q 601 667 553 692 q 677 600 650 643 q 714 498 704 557 q 724 372 724 440 l 724 0 l 513 0 l 513 330 q 513 391 513 359 q 502 448 513 422 q 470 491 492 475 q 408 508 448 508 q 342 493 367 508 q 304 455 317 479 q 286 400 290 430 q 282 336 282 369 l 282 0 l 74 0 l 74 675 "},"3":{"x_min":44.4375,"x_max":751,"ha":822,"o":"m 300 596 l 367 596 q 424 600 397 596 q 475 616 452 604 q 512 649 498 627 q 526 705 526 670 q 490 778 526 749 q 403 808 455 808 q 323 781 355 808 q 281 716 291 755 l 52 763 q 102 872 69 827 q 181 945 136 917 q 283 986 227 973 q 402 1000 340 1000 q 528 984 467 1000 q 634 934 588 968 q 707 848 680 900 q 734 726 734 797 q 691 586 734 644 q 566 511 648 527 l 566 507 q 644 480 610 501 q 702 429 678 459 q 738 359 725 398 q 751 277 751 320 q 722 148 751 204 q 646 55 694 92 q 533 1 598 19 q 397 -17 469 -17 q 170 44 265 -17 q 44 237 74 105 l 263 288 q 308 205 275 236 q 409 175 342 175 q 510 210 477 175 q 542 302 542 246 q 525 367 542 344 q 480 401 507 390 q 417 412 452 412 q 348 412 383 412 l 300 412 l 300 596 "},"9":{"x_min":47,"x_max":780.328125,"ha":822,"o":"m 255 654 q 299 543 255 587 q 413 500 342 500 q 528 543 484 500 q 572 654 572 587 q 528 765 572 721 q 413 809 484 809 q 299 765 342 809 q 255 654 255 721 m 423 351 q 390 344 406 347 q 355 342 373 342 q 228 367 285 342 q 131 435 172 392 q 69 537 91 478 q 47 663 47 596 q 75 801 47 739 q 153 907 103 863 q 269 976 202 952 q 413 1001 335 1001 q 557 976 490 1001 q 674 907 624 952 q 751 801 723 863 q 780 663 780 739 q 770 566 780 610 q 744 483 760 522 q 707 409 728 444 q 662 336 685 374 l 447 0 l 192 0 l 423 351 "},"l":{"x_min":76,"x_max":284.328125,"ha":361,"o":"m 76 1051 l 284 1051 l 284 0 l 76 0 l 76 1051 "},"¤":{"x_min":50,"x_max":772,"ha":822,"o":"m 233 492 q 246 419 233 453 q 285 360 260 385 q 341 320 309 335 q 411 306 373 306 q 480 320 448 306 q 536 360 512 335 q 575 419 561 385 q 589 492 589 453 q 575 565 589 531 q 536 624 561 599 q 480 664 512 649 q 411 679 448 679 q 341 664 373 679 q 285 624 309 649 q 246 565 260 599 q 233 492 233 531 m 117 281 q 68 379 86 325 q 50 492 50 432 q 68 605 50 552 q 117 704 86 659 l 50 772 l 133 854 l 201 787 q 298 836 245 819 q 411 854 351 854 q 523 836 470 854 q 620 787 576 819 l 688 854 l 772 772 l 704 704 q 772 492 772 610 q 704 281 772 374 l 772 212 l 688 131 l 620 197 q 523 148 576 165 q 411 131 470 131 q 298 148 351 131 q 201 197 245 165 l 133 131 l 50 212 l 117 281 "},"4":{"x_min":33,"x_max":789,"ha":822,"o":"m 462 708 l 462 711 l 459 711 l 241 372 l 462 372 l 462 708 m 462 197 l 33 197 l 33 372 l 434 983 l 662 983 l 662 372 l 789 372 l 789 197 l 662 197 l 662 0 l 462 0 l 462 197 "},"p":{"x_min":93,"x_max":826.328125,"ha":875,"o":"m 284 337 q 328 213 284 261 q 451 166 372 166 q 574 213 530 166 q 618 337 618 261 q 574 461 618 413 q 451 508 530 508 q 328 461 372 508 q 284 337 284 413 m 93 675 l 284 675 l 284 586 l 287 586 q 320 622 299 604 q 367 657 340 641 q 426 682 394 672 q 494 692 458 692 q 630 666 569 692 q 735 593 691 640 q 802 483 779 547 q 826 343 826 419 q 804 207 826 272 q 743 92 783 142 q 647 12 704 42 q 518 -17 590 -17 q 396 3 452 -17 q 304 72 340 23 l 301 72 l 301 -317 l 93 -317 l 93 675 "},"‡":{"x_min":47,"x_max":775,"ha":822,"o":"m 315 65 l 47 65 l 47 232 l 315 232 l 315 567 l 47 567 l 47 734 l 315 734 l 315 984 l 507 984 l 507 734 l 775 734 l 775 567 l 507 567 l 507 232 l 775 232 l 775 65 l 507 65 l 507 -185 l 315 -185 l 315 65 "},"à":{"x_min":40,"x_max":689,"ha":746,"o":"m 445 293 q 386 293 422 293 q 318 283 351 293 q 262 253 285 273 q 240 199 240 234 q 271 143 240 161 q 338 125 303 125 q 397 133 369 125 q 448 156 426 141 q 484 194 470 171 q 497 249 497 217 l 497 293 l 445 293 m 497 84 l 494 84 q 402 6 459 30 q 280 -17 344 -17 q 189 -3 233 -17 q 112 36 145 9 q 59 101 78 62 q 40 192 40 140 q 61 291 40 250 q 119 358 83 331 q 203 399 156 384 q 301 421 251 414 q 403 428 352 428 q 497 428 454 428 q 457 517 497 484 q 363 550 417 550 q 269 528 312 550 q 194 469 227 507 l 83 583 q 219 664 141 637 q 380 692 297 692 q 531 669 472 692 q 625 601 590 646 q 675 492 661 557 q 689 343 689 427 l 689 0 l 497 0 l 497 84 m 515 783 l 331 783 l 91 983 l 374 983 l 515 783 "},"Ü":{"x_min":100,"x_max":929,"ha":1029,"o":"m 929 379 q 902 218 929 291 q 824 90 876 144 q 694 5 772 36 q 515 -25 616 -25 q 334 5 412 -25 q 204 90 256 36 q 126 218 152 144 q 100 379 100 291 l 100 984 l 317 984 l 317 387 q 331 302 317 341 q 372 235 346 263 q 435 190 398 206 q 515 175 472 175 q 594 190 558 175 q 656 235 630 206 q 697 302 682 263 q 712 387 712 341 l 712 984 l 929 984 l 929 379 m 658 1047 q 612 1056 633 1047 q 576 1083 591 1066 q 552 1121 561 1099 q 543 1166 543 1142 q 552 1209 543 1188 q 576 1245 561 1230 q 611 1270 591 1260 q 655 1280 631 1280 q 739 1248 703 1280 q 776 1166 776 1216 q 742 1081 776 1116 q 658 1047 709 1047 m 369 1047 q 323 1056 344 1047 q 287 1083 302 1066 q 263 1121 272 1099 q 254 1166 254 1142 q 263 1209 254 1188 q 287 1245 272 1230 q 322 1270 302 1260 q 366 1280 342 1280 q 450 1248 414 1280 q 487 1166 487 1216 q 453 1081 487 1116 q 369 1047 420 1047 "},"ó":{"x_min":49,"x_max":799,"ha":848,"o":"m 257 337 q 301 213 257 260 q 424 166 344 166 q 546 213 503 166 q 590 337 590 260 q 546 460 590 413 q 424 508 503 508 q 301 460 344 508 q 257 337 257 413 m 49 337 q 78 483 49 417 q 158 594 107 548 q 277 666 208 641 q 424 691 346 691 q 570 666 501 691 q 689 594 639 641 q 769 483 740 548 q 799 337 799 417 q 769 191 799 256 q 689 79 740 126 q 570 8 639 33 q 424 -17 501 -17 q 277 8 346 -17 q 158 79 208 33 q 78 191 107 126 q 49 337 49 256 m 425 983 l 708 983 l 468 783 l 285 783 l 425 983 "}}}
